<?xml version="1.0" encoding="utf-8"?>
<!-- Generator: Adobe Illustrator 16.0.0, SVG Export Plug-In . SVG Version: 6.00 Build 0)  -->
<!DOCTYPE svg PUBLIC "-//W3C//DTD SVG 1.1//EN" "http://www.w3.org/Graphics/SVG/1.1/DTD/svg11.dtd">
<svg version="1.1" id="证件人组全" xmlns="http://www.w3.org/2000/svg" xmlns:xlink="http://www.w3.org/1999/xlink" x="0px"
	 y="0px" width="256px" height="155px" viewBox="0 0 256 155" enable-background="new 0 0 256 155" xml:space="preserve">
<path fill="#D6D6D6" d="M123.829,1.414C154.583,1.417,175.25,43.5,144.75,71.167C192,71.333,225,82.333,232.584,90.948
	c2.833,6.167,10.79,21.234,1.207,28.734S131.333,152,131.333,152H118L18,112V92c9.167-5.25,42.5-24,86.083-20.833
	C85.625,61.25,79.125,3,123.829,1.414z"/>
<g>
	<path fill="#F6F6F6" d="M121,146.749c0,3.452-2.799,6.251-6.251,6.251H25.251c-3.453,0-6.251-2.799-6.251-6.251V98.251
		C19,94.799,21.799,92,25.251,92h89.497c3.453,0,6.251,2.799,6.251,6.251V146.749z"/>
	<g>
		<rect x="28" y="109" fill="#E7E7E7" width="41" height="3"/>
		<rect x="28" y="116" fill="#E7E7E7" width="41" height="5"/>
		<rect x="28" y="127" fill="#E7E7E7" width="41" height="3"/>
		<rect x="28" y="144" fill="#E7E7E7" width="84" height="3"/>
		<path fill="#E7E7E7" d="M91.447,119.473c1.142,0.691-0.541,2.369-0.541,2.369C81.44,126.079,82.221,135,82.221,135h27.889
			c-0.812-11-9.618-14.214-9.618-14.214s-0.296-1.008,0-1.271c5.59-4.959,5.47-18.594-4.087-18.594
			C83.785,100.922,87.84,119.473,91.447,119.473z"/>
	</g>
</g>
<g id="储蓄卡.正面_x5F_复制">
	<path fill="#F6F6F6" d="M231,146.713c0,3.473-2.815,6.287-6.288,6.287h-89.424c-3.473,0-6.288-2.814-6.288-6.287V97.287
		c0-3.472,2.815-6.287,6.288-6.287h89.424c3.473,0,6.288,2.815,6.288,6.287V146.713z"/>
	<g>
		<rect x="132" y="104" fill="#E7E7E7" width="98" height="10"/>
		<rect x="141" y="136" fill="#E7E7E7" width="39" height="3"/>
		<rect x="141" y="125" fill="#E7E7E7" width="39" height="3"/>
		<rect x="140" y="141" fill="#E7E7E7" width="83" height="4"/>
		
			<text transform="matrix(1 0 0 1 190.3164 133.9277)" fill="#C7C7C7" font-family="'MicrosoftYaHei-Bold'" font-size="10.4963" letter-spacing="1">储蓄卡</text>
	</g>
</g>
<g>
	<path fill="#D6D6D6" d="M238.531,89.438c3.208,0,8.593,2.063,8.593,9.617c0.503,4.196-1.089,9.424-6.858,14.977
		c0,0-0.828-0.031-0.828-1.031H237c0,0,0.625,4.313-2.625,6.75c0,0-1.063-0.5-0.813-5.563c0,0-6.688,7.375-9.063,3.375
		c0,0-3.063-2.688,0-6.063c0,0-0.313-1.063,0.25-1.875c0,0-16.375,1.063,2.063-14.75C226.813,94.875,233,89.438,238.531,89.438z"/>
	<path fill="#D6D6D6" d="M24.313,89.375c0,0,17.375,5.563,20.063,17c0,0-0.25,3.688-6.625,3.375c0,0,1.125,3.25,1.125,5.063
		s-4.063,8.938-11.5-2.75c0,0-10.5,8.75-12.188-11.688C15.188,100.375,12.938,89.438,24.313,89.375z"/>
</g>
</svg>
