<?xml version="1.0" encoding="utf-8"?>
<!-- Generator: Adobe Illustrator 16.0.0, SVG Export Plug-In . SVG Version: 6.00 Build 0)  -->
<!DOCTYPE svg PUBLIC "-//W3C//DTD SVG 1.1//EN" "http://www.w3.org/Graphics/SVG/1.1/DTD/svg11.dtd">
<svg version="1.1" id="身份证.背面" xmlns="http://www.w3.org/2000/svg" xmlns:xlink="http://www.w3.org/1999/xlink" x="0px"
	 y="0px" width="256px" height="155px" viewBox="0 0 256 155" enable-background="new 0 0 256 155" xml:space="preserve">
<path fill="#F6F6F6" d="M255,138.424c0,8.603-6.974,15.576-15.575,15.576H16.575C7.973,154,1,147.026,1,138.424V16.576
	C1,7.974,7.973,1,16.575,1h222.85C248.026,1,255,7.974,255,16.576V138.424z"/>
<path fill-rule="evenodd" clip-rule="evenodd" fill="#E7E7E7" d="M54.363,91.558L54.363,91.558l-0.374,0.294l-3.672-0.321l0,0
	c-0.32-0.257-0.747,0.009-1.111-0.115c-1.023-0.205-2.285,0.16-2.97-0.844c-0.409-0.027-0.889,0.053-1.228-0.063
	c-0.142-0.285-0.062-0.711-0.231-1.014c-0.729,0.195-1.458,0.391-2.134,0.721c-0.054,0.462,0.017,0.969-0.169,1.378l0,0l-4.464-0.33
	l0,0c-0.257-0.258-0.249-0.64-0.32-0.987l0,0l-0.116-0.115l0,0c-0.765-0.107-1.512-0.25-2.241-0.436l0,0l-0.036-1.165l0,0
	c-0.738-0.267-1.574-0.312-2.33-0.524l0,0l-0.293-1.022l0,0c-0.569-0.16-1.271-0.018-1.778-0.347l0,0l1.573-9.737l0,0
	c-0.062-0.302-0.373-0.116-0.551-0.205c-0.996-0.898-1.689-1.93-2.418-2.944c0.16-0.239,0.08-0.489-0.089-0.702
	c-2.712-3.77-4.411-7.95-5.504-12.387c-0.213-0.106-0.355-0.24-0.409-0.471l0,0L23,56.229l0,0l0.241-0.384
	c0.05-0.263,0.011-0.658-0.01-1.279c-0.089-6.384,1.885-11.907,4.784-17.046c-0.133-0.187-0.187-0.409-0.205-0.64l0,0l1.628-2.224
	l0,0c0.222-0.16,0.507-0.16,0.765-0.231c2.925-3.619,6.598-6.803,10.493-8.768c4.86-2.37,10.11-3.999,15.886-4.009
	c5.777,0.01,11.026,1.639,15.886,4.009c3.895,1.965,7.567,5.149,10.493,8.768c0.258,0.071,0.543,0.071,0.765,0.231l0,0l1.627,2.224
	l0,0c-0.018,0.231-0.071,0.453-0.205,0.64c2.899,5.139,4.873,10.662,4.784,17.046c0.115,0.543-0.285,1.254,0.231,1.663l0,0
	l-0.498,3.993l0,0c-0.053,0.231-0.195,0.365-0.409,0.471c-1.094,4.438-2.792,8.617-5.504,12.387
	c-0.169,0.213-0.249,0.462-0.089,0.702c-0.729,1.014-1.422,2.045-2.418,2.944c-0.178,0.089-0.489-0.098-0.551,0.205l0,0l1.573,9.737
	l0,0c-0.507,0.329-1.208,0.187-1.778,0.347l0,0l-0.293,1.022l0,0c-0.756,0.213-1.592,0.258-2.33,0.524l0,0l-0.036,1.165l0,0
	c-0.729,0.187-1.476,0.329-2.241,0.436l0,0l-0.116,0.115l0,0c-0.071,0.347-0.063,0.729-0.32,0.987l0,0l-4.464,0.33l0,0
	c-0.187-0.41-0.116-0.916-0.169-1.378c-0.675-0.33-1.404-0.525-2.134-0.721c-0.169,0.303-0.089,0.729-0.231,1.014
	c-0.338,0.116-0.818,0.036-1.228,0.063c-0.685,1.004-1.947,0.64-2.97,0.844c-0.364,0.125-0.791-0.142-1.111,0.115l0,0l-3.673,0.321
	L58.8,91.558l0,0C57.331,91.616,55.832,91.616,54.363,91.558L54.363,91.558z M56.581,21.983c-4.391-0.028-8.509,1.057-12.364,2.475
	c-5.247,1.832-9.906,5.522-13.81,10.172l0,0l0.027,0.151l0,0c0.275,0.356,0.295,0.895,0.615,1.241
	c0.087-1.208,0.827-1.958,1.342-2.788c1.12-1.459,2.677-2.472,4.019-3.699l0,0l0.178-0.063l0,0c0.071,0.036,0.053,0.107,0.053,0.178
	c-1.343,1.173-2.917,2.241-3.966,3.726c-0.835,0.8-0.72,1.992-0.845,3.095l0,0c0.025,0.038-0.131,0.346-0.458,0.328
	c-0.539-0.079-0.783,0.321-1.143,0.748c0.258,0.285,0,0.631-0.026,0.934c-0.151,0.16-0.374,0.151-0.587,0.142
	c-0.213-0.098-0.195-0.374-0.231-0.551c-0.142-0.187,0.027-0.391-0.026-0.614c0.044-0.329,0.48-0.089,0.667-0.258
	c0.249-0.151,0.49-0.399,0.498-0.702c-0.231-0.338-0.035-0.854-0.178-1.227c-0.089-0.267-0.355-0.48-0.667-0.347l0,0l-1.405,1.867
	l0.062,0.143l0,0c0.107,0.258,0.409,0.311,0.667,0.32c0.08,0.036,0.258,0.027,0.204,0.178c-0.658,0.685,0.036,1.529-0.089,2.356
	c-0.062,0.426,0.053,0.925-0.32,1.227c-0.25,0.063-0.347-0.231-0.551-0.292c-0.275-0.276-0.196-0.81-0.089-1.139
	c0.089-0.623,0.364-1.183,0.675-1.716c-0.098-0.205-0.338-0.196-0.524-0.231c-0.499,0.862-1.005,1.725-1.431,2.623
	c-1.877,3.86-2.917,8.065-3.264,12.565c-0.046,0.987-0.008,2.115-0.083,3.023c-0.018,0.21-0.09,0.223-0.178,0.405
	c0.16,1.29,0.102,2.796,0.608,3.943c0.089,0.027,0.24,0.045,0.231,0.178c1.12,4.588,2.846,8.928,5.718,12.795l0,0l0.026,0.64l0,0
	c0.587,0.863,1.29,1.708,2.045,2.481c0.213,0.133,0.329-0.16,0.489-0.24c0.276-0.267,0.498,0.195,0.676,0.355
	c0.312,1.076,1.147,1.947,1.947,2.828c1.031,0.898,1.671,2.366,3.006,2.739c2.063,1.547,4.419,2.375,7.024,2.596
	c1.325,0.125,2.979,0.436,4.144-0.267c-0.48,0.08-0.969,0.124-1.458,0.142c-1.876-0.062-3.61-0.694-5.042-1.6
	c0.249,0.329,0.587,0.462,0.845,0.791c0.178,0.16,0.525,0.125,0.578,0.409c-1.583,0.035-2.845-0.916-4.313-1.253
	c-1.743-0.748-3.059-2.589-3.61-4.287c-0.48-1.476-0.997-2.961-0.908-4.642c-0.56-0.524-0.996-1.112-1.458-1.689l0,0l-0.436,0.907
	l0,0c0.196,0.951,0.302,1.938,0.578,2.854c0.703,1.805,1.574,3.708,3.388,4.874l0,0v0.079l0,0c-0.044,0.081-0.116,0.196-0.24,0.152
	c-1.894-1.263-2.828-3.3-3.495-5.247c-0.169-0.711-0.24-1.467-0.462-2.161l0,0l-1.173,2.419l0,0
	c-0.303-0.356-0.542-0.739-0.845-1.104l0,0l3.646-8.109l0,0c0.355,0.444,0.551,0.952,0.88,1.405l0,0l-1.111,2.392l0,0
	c0.355,0.098,0.702,0.24,1.022,0.436c0.187,0.205,0.57,0.276,0.578,0.613c-0.026,0.213-0.267,0.169-0.409,0.258
	c-0.063,0.338,0.134,0.569,0.063,0.907c-0.454,0.161-0.792-0.489-1.049-0.792c-0.187-0.293-0.204-0.684-0.436-0.933
	c-0.134,0.213-0.214,0.444-0.293,0.676c0.827,1.734,2.686,2.846,4.108,4.082c-0.125-0.311-0.338-0.587-0.374-0.934
	c0.009-0.151,0.169-0.187,0.285-0.204c0.471,0.311,0.72,0.889,1.2,1.254c0.392,0.054,0.436,0.417,0.524,0.729
	c0.712,0.32,1.699-0.32,2.241,0.436c0.089,0.196,0.089,0.499,0,0.703c-0.106,0.382,0.018,0.764,0.382,0.959l0,0l-0.613-4.401l0,0
	c0.026-0.106,0.133-0.116,0.205-0.177l0,0l1.076,0.667l0.676,3.734l0,0c0.116,0.294-0.036,0.854,0.436,0.845l0,0l-0.792-4.34
	l0.063-0.089l0,0c0.347-0.017,0.64,0.276,0.96,0.41c0.347,1.485,0.605,3.014,0.907,4.517c0.667,0.24,1.396,0.355,2.125,0.463
	c0.267,0.071,0.676,0.133,0.898-0.054c0.125-0.107,0.133-0.258,0.062-0.382l0,0l-0.818-0.178l0,0
	c-0.64-0.205-1.441-0.018-1.983-0.489c0-0.116-0.124-0.257,0-0.355c1.13,0.053,2.134,0.453,3.148,0.676
	c0.053-0.133-0.071-0.196-0.115-0.294c-0.997-0.409-2.125-0.516-3.112-0.959c-0.063-0.151-0.178-0.321-0.089-0.499
	c1.013,0.205,1.903,0.827,2.908,0.96c0-0.106,0.133-0.231,0-0.32l0,0l-2.855-1.102l-0.257-0.205l0,0c0-0.151-0.258-0.355,0-0.436
	c1.084,0.311,2.099,0.809,3.148,1.218c0.329,0.249,0.417-0.16,0.489-0.373c-1.228-0.418-2.401-0.987-3.61-1.458l0,0l-0.436-0.641
	l-2.565-1.659l-0.698-0.021c-1.886-1.1-2.587-2.135-3.824-3.283c-0.604-0.738-1.12-1.521-1.778-2.24l0,0v-0.205l-1.663-3.033
	l-0.373-0.205l0,0c-0.516-0.853-0.987-1.734-1.28-2.677c-0.872-2.979-1.477-6.064-1.29-9.479c0.099-0.116,0.223-0.177,0.32-0.257
	c0.205-1.583,0.267-3.228,0.729-4.695l0,0l-0.08-0.267l0,0c0.107-1.316,0.614-2.534,1.245-3.673
	c2.027-4.748,6.643-9.381,11.311-11.631c2.303-1.032,4.695-1.85,7.176-2.446c1.477-0.153,2.945-0.452,4.459-0.407
	c1.515-0.045,2.983,0.254,4.46,0.407c2.48,0.596,4.873,1.414,7.176,2.446c4.668,2.25,9.284,6.883,11.311,11.631
	c0.631,1.139,1.138,2.356,1.245,3.673l0,0l-0.08,0.267l0,0c0.462,1.467,0.524,3.112,0.729,4.695c0.098,0.08,0.223,0.142,0.32,0.257
	c0.187,3.415-0.418,6.5-1.29,9.479c-0.293,0.943-0.764,1.824-1.28,2.677l0,0l-0.373,0.205l-1.663,3.033v0.205l0,0
	c-0.658,0.719-1.174,1.502-1.778,2.24c-1.245,1.165-2.348,2.614-3.824,3.299l0,0l-0.756,0.054l-2.508,1.609l-0.436,0.641l0,0
	c-1.209,0.471-2.383,1.041-3.61,1.458c0.071,0.213,0.16,0.622,0.489,0.373c1.049-0.409,2.063-0.907,3.148-1.218
	c0.258,0.081,0,0.285,0,0.436l0,0l-0.257,0.205l-2.855,1.102l0,0c-0.133,0.089,0,0.214,0,0.32c1.005-0.133,1.895-0.756,2.908-0.96
	c0.088,0.178-0.027,0.347-0.089,0.499c-0.987,0.444-2.116,0.551-3.112,0.959c-0.044,0.098-0.168,0.161-0.115,0.294
	c1.014-0.223,2.018-0.623,3.148-0.676c0.125,0.098,0,0.24,0,0.355c-0.542,0.472-1.343,0.285-1.983,0.489l0,0l-0.818,0.178l0,0
	c-0.071,0.125-0.063,0.275,0.062,0.382c0.223,0.187,0.631,0.125,0.898,0.054c0.729-0.107,1.458-0.223,2.125-0.463
	c0.302-1.503,0.561-3.032,0.907-4.517c0.32-0.133,0.614-0.426,0.96-0.41l0,0l0.062,0.089l-0.792,4.34l0,0
	c0.472,0.009,0.32-0.551,0.436-0.845l0,0l0.676-3.734l1.076-0.667l0,0c0.071,0.062,0.178,0.071,0.205,0.177l0,0l-0.614,4.401l0,0
	c0.365-0.195,0.489-0.578,0.382-0.959c-0.089-0.205-0.089-0.507,0-0.703c0.542-0.756,1.529-0.115,2.241-0.436
	c0.088-0.312,0.133-0.675,0.524-0.729c0.48-0.365,0.729-0.943,1.2-1.254c0.116,0.018,0.275,0.053,0.285,0.204
	c-0.036,0.347-0.249,0.623-0.374,0.934c1.422-1.236,3.281-2.348,4.108-4.082c-0.08-0.231-0.16-0.462-0.293-0.676
	c-0.231,0.249-0.249,0.64-0.436,0.933c-0.258,0.303-0.596,0.952-1.049,0.792c-0.071-0.337,0.125-0.568,0.063-0.907
	c-0.142-0.088-0.382-0.044-0.409-0.258c0.009-0.337,0.391-0.409,0.578-0.613c0.32-0.196,0.667-0.338,1.022-0.436l0,0l-1.112-2.392
	l0,0c0.33-0.453,0.525-0.96,0.88-1.405l0,0l3.646,8.109l0,0c-0.302,0.365-0.542,0.747-0.845,1.104l0,0l-1.173-2.419l0,0
	c-0.223,0.694-0.293,1.45-0.462,2.161c-0.667,1.947-1.601,3.984-3.495,5.247c-0.125,0.044-0.196-0.071-0.24-0.152l0,0v-0.079l0,0
	c1.814-1.166,2.686-3.069,3.388-4.874c0.276-0.916,0.382-1.903,0.578-2.854l0,0l-0.436-0.907l0,0
	c-0.462,0.578-0.897,1.165-1.458,1.689c0.089,1.681-0.427,3.166-0.907,4.642c-0.551,1.698-1.867,3.539-3.61,4.287
	c-1.467,0.337-2.73,1.288-4.313,1.253c0.053-0.285,0.4-0.249,0.578-0.409c0.257-0.329,0.596-0.462,0.845-0.791
	c-1.432,0.906-3.166,1.538-5.042,1.6c-0.489-0.018-0.978-0.062-1.458-0.142c1.164,0.702,2.818,0.392,4.144,0.267
	c2.605-0.222,4.962-1.049,7.024-2.596c1.334-0.374,1.975-1.841,3.006-2.739c0.8-0.88,1.636-1.751,1.947-2.828
	c0.178-0.16,0.4-0.622,0.676-0.355c0.16,0.08,0.275,0.373,0.489,0.24c0.756-0.774,1.458-1.619,2.045-2.481l0,0l0.027-0.64l0,0
	c2.872-3.868,4.598-8.207,5.718-12.795c-0.009-0.133,0.142-0.151,0.231-0.178c0.506-1.147,0.454-2.525,0.613-3.814
	c-0.356-1.085-0.178-2.375-0.267-3.557c-0.347-4.5-1.387-8.705-3.264-12.565c-0.427-0.898-0.934-1.76-1.432-2.623
	c-0.187,0.035-0.427,0.026-0.524,0.231c0.311,0.533,0.587,1.094,0.676,1.716c0.106,0.329,0.187,0.862-0.089,1.139
	c-0.205,0.062-0.302,0.355-0.551,0.292c-0.374-0.302-0.258-0.8-0.32-1.227c-0.125-0.827,0.569-1.672-0.089-2.356
	c-0.054-0.151,0.125-0.143,0.204-0.178c0.258-0.009,0.561-0.062,0.667-0.32l0,0l0.063-0.143l-1.405-1.867l0,0
	c-0.312-0.134-0.578,0.08-0.667,0.347c-0.143,0.374,0.053,0.889-0.178,1.227c0.009,0.303,0.249,0.551,0.498,0.702
	c0.187,0.169,0.623-0.071,0.667,0.258c-0.053,0.223,0.116,0.427-0.026,0.614c-0.036,0.178-0.018,0.453-0.231,0.551
	c-0.213,0.009-0.436,0.018-0.587-0.142c-0.026-0.303-0.285-0.649-0.026-0.934c-0.303-0.462-0.783-0.916-1.396-0.791l0,0
	l-0.205-0.284l0,0c-0.125-1.104-0.009-2.295-0.845-3.095c-1.049-1.485-2.624-2.553-3.966-3.726c0-0.071-0.018-0.142,0.053-0.178l0,0
	l0.178,0.063l0,0c1.343,1.227,2.899,2.24,4.019,3.699c0.525,0.889,1.316,1.663,1.378,2.739c0.32-0.347,0.303-0.836,0.578-1.192l0,0
	l0.027-0.151l0,0c-3.904-4.65-8.563-8.341-13.81-10.172C65.091,23.04,60.973,21.955,56.581,21.983L56.581,21.983z M56.581,29.724
	c-1.429,0.07-2.83,0.207-4.201,0.416c-5.38,1.147-10.377,3.388-14.343,7.754c-2.624,2.712-4.197,5.86-5.273,9.212l0,0l0.151,0.472
	l0,0c-0.462,1.627-0.792,3.308-0.853,5.095l0,0l-0.321,0.356l0,0c-0.151,3.619,0.569,6.883,1.636,9.995
	c0.4,0.64,0.418,1.602,1.281,1.894l0,0l1.227,2.161l0,0c0,0.542,0.4,0.934,0.667,1.37l0,0l0.115-0.036l0.676-1.921h8.536
	l0.293-0.667l0.667-0.036v-1.102l0,0c-0.08-0.365-0.427-0.534-0.72-0.702c-0.009-0.374,0.711-0.169,0.462-0.694
	c0.267-0.249,0.729,0.125,0.907-0.205c-0.036-0.151-0.188-0.258-0.356-0.205c-0.107-0.08-0.329-0.133-0.293-0.32
	c0.107-0.151,0.285-0.116,0.445-0.125c0.249-0.053,0.089-0.32,0.258-0.436c0.178-0.062,0.258,0.116,0.409,0.116
	c0.071,0.027,0.125-0.063,0.143-0.116c-0.045-0.809,0.08-1.627,0.125-2.445c0.168-0.178,0.337-0.49,0.64-0.409
	c0.248-0.045,0.302,0.249,0.436,0.382l0,0h7.287h7.287l0,0c0.133-0.133,0.188-0.427,0.436-0.382c0.303-0.081,0.472,0.231,0.64,0.409
	c0.045,0.818,0.169,1.636,0.125,2.445c0.018,0.053,0.071,0.143,0.143,0.116c0.151,0,0.231-0.178,0.409-0.116
	c0.169,0.116,0.009,0.382,0.258,0.436c0.16,0.009,0.338-0.026,0.445,0.125c0.035,0.187-0.187,0.24-0.293,0.32
	c-0.168-0.053-0.32,0.054-0.356,0.205c0.178,0.329,0.641-0.044,0.907,0.205c-0.249,0.524,0.472,0.32,0.462,0.694
	c-0.293,0.168-0.64,0.337-0.72,0.702l0,0v1.102l0.667,0.036l0.293,0.667h8.536l0.676,1.921l0.115,0.036l0,0
	c0.267-0.436,0.667-0.827,0.667-1.37l0,0l1.227-2.161l0,0c0.863-0.292,0.88-1.254,1.281-1.894c1.067-3.112,1.787-6.376,1.636-9.995
	l0,0l-0.32-0.356l0,0c-0.062-1.787-0.391-3.468-0.853-5.095l0,0l0.151-0.472l0,0c-1.076-3.352-2.65-6.5-5.273-9.212
	c-3.966-4.366-8.963-6.607-14.343-7.754C59.411,29.931,58.011,29.794,56.581,29.724L56.581,29.724z M56.581,59.862l-7.491-0.014l0,0
	c-0.249-0.027-0.151-0.32-0.382-0.382c-0.16,0.027-0.205,0.168-0.258,0.293l0,0l-0.063,2.152l0.382-0.026l0.027-1.778l7.785,0.018
	l7.785-0.018l0.027,1.778l0.382,0.026l-0.063-2.152l0,0c-0.053-0.125-0.098-0.267-0.258-0.293c-0.231,0.063-0.133,0.355-0.382,0.382
	l0,0L56.581,59.862L56.581,59.862z M48.77,62.382L48.77,62.382c-0.133,0.08-0.4-0.009-0.382,0.231c0,0.106,0.107,0.125,0.178,0.177
	l0,0h16.033l0,0c0.071-0.053,0.178-0.071,0.178-0.177c0.018-0.24-0.249-0.151-0.382-0.231l0,0H48.77L48.77,62.382z M47.951,63.405
	l-0.142,0.027l0,0c-0.062,0.072-0.249,0.08-0.178,0.23c0,0.089,0.098,0.081,0.142,0.117l0,0h17.616l0,0
	c0.044-0.036,0.142-0.027,0.142-0.117c0.071-0.15-0.116-0.159-0.178-0.23l0,0l-0.142-0.027H47.951L47.951,63.405z M47.08,64.214
	v1.609h0.284l0.205-0.88l0,0c0.142-0.365,0.586-0.338,0.907-0.285c0.489,0.213,0.276,0.773,0.409,1.165l0,0h0.32l0.115-0.845l0,0
	c0.089-0.275,0.365-0.311,0.614-0.319c0.249,0.018,0.498,0.035,0.667,0.257c0.195,0.293-0.071,1.059,0.524,0.907
	c0.044-0.374,0-0.774,0.267-1.049c0.232-0.115,0.472-0.294,0.755-0.178c0.223,0.089,0.294,0.267,0.383,0.471
	c0.187,0.231-0.062,0.916,0.436,0.756c-0.008-0.365-0.008-0.72,0.205-0.997c0.178-0.177,0.445-0.142,0.694-0.142
	c0.587,0.063,0.462,0.72,0.56,1.138l0,0l0.489-0.036l0,0c0.018-0.213-0.018-0.444,0.036-0.64c0.115-0.24,0.391-0.355,0.613-0.462
	c0.65,0.018,1.387,0.018,2.037,0c0.222,0.107,0.498,0.222,0.613,0.462c0.053,0.196,0.018,0.426,0.036,0.64l0,0l0.489,0.036l0,0
	c0.098-0.418-0.027-1.076,0.56-1.138c0.249,0,0.516-0.036,0.694,0.142c0.213,0.276,0.213,0.632,0.205,0.997
	c0.498,0.16,0.249-0.524,0.436-0.756c0.089-0.205,0.16-0.382,0.382-0.471c0.285-0.116,0.525,0.063,0.756,0.178
	c0.267,0.275,0.222,0.676,0.267,1.049c0.596,0.151,0.329-0.614,0.524-0.907c0.169-0.222,0.418-0.24,0.667-0.257
	c0.249,0.008,0.524,0.044,0.614,0.319l0,0l0.115,0.845h0.32l0,0c0.133-0.391-0.08-0.952,0.409-1.165
	c0.32-0.053,0.765-0.08,0.907,0.285l0,0l0.205,0.88h0.284v-1.609H47.08L47.08,64.214z M50.752,67.131l-0.436-0.32l0,0
	c-0.338-0.106-0.649,0.027-0.854,0.32l0,0H37.485l-0.205,0.64h11.195l0.907,0.881l0,0c-0.053,0.614,0.107,1.201-0.035,1.779
	c-0.08,0.079-0.151,0.186-0.285,0.142c-0.374-0.196-0.311-0.685-0.471-1.023c-0.196-0.275-0.489-0.658-0.898-0.462
	c-0.694,0.471-0.667,1.334-1.049,1.983l0,0l-4.402-0.027l0,0c-0.036-0.222,0.071-0.506-0.089-0.648l0,0l-3.965,0.002l0.32,0.354
	h3.147l0,0c0.16-0.018,0.285,0.106,0.231,0.292l0,0l-3.075,0.012l0.194,0.247h35.152l0.177-0.205l-3.059-0.054l0,0
	c-0.053-0.187,0.072-0.311,0.231-0.292l0,0h3.147l0.32-0.32l-3.966-0.036l0,0c-0.16,0.142-0.053,0.427-0.089,0.648l0,0l-4.401,0.027
	l0,0c-0.382-0.649-0.356-1.512-1.05-1.983c-0.409-0.195-0.702,0.187-0.898,0.462c-0.16,0.338-0.098,0.827-0.471,1.023
	c-0.133,0.044-0.204-0.063-0.284-0.142c-0.143-0.579,0.018-1.165-0.036-1.779l0,0l0.907-0.881h11.195l-0.205-0.64H63.7l0,0
	c-0.205-0.293-0.516-0.427-0.854-0.32l0,0l-0.436,0.32H50.752L50.752,67.131z M39.291,71.622L39.291,71.622
	c0.64,0.631,1.355,1.251,2.049,1.723l0.663-0.006l0,0l3.237,1.983l0.267,0.586l0,0c1.333,0.516,2.658,1.067,3.993,1.601l0,0h0.551
	l0,0c0.489-0.4,0.009-0.863-0.116-1.281l0,0l1.076-1.165l0,0c0.498-0.257,0.782,0.623,1.227,0.144
	c0.258-0.259,0.116-0.712,0.116-1.05c0.392-0.418,0.978-0.507,1.458-0.783l0,0h0.258l0,0c0.302,0.133,0.365,0.463,0.525,0.694
	c0.169,0.027,0.374-0.036,0.56-0.054c0.222-0.071,0.302-0.311,0.32-0.524c0.168-0.59,2.048-0.581,2.214,0
	c0.018,0.214,0.098,0.454,0.32,0.524c0.187,0.018,0.391,0.081,0.56,0.054c0.16-0.231,0.223-0.561,0.525-0.694l0,0h0.258l0,0
	c0.48,0.275,1.067,0.365,1.458,0.783c0,0.338-0.142,0.791,0.116,1.05c0.444,0.479,0.729-0.401,1.227-0.144l0,0l1.076,1.165l0,0
	c-0.125,0.418-0.604,0.881-0.116,1.281l0,0h0.551l0,0c1.334-0.534,2.659-1.085,3.993-1.601l0,0l0.267-0.586l3.237-1.983l0,0
	c0.222-0.045,0.507,0.106,0.729-0.027c0.694-0.472,1.343-1.058,1.983-1.689l0,0H39.291L39.291,71.622z M56.114,73.338
	c-0.417,0.071-0.462,0.595-0.64,0.907l0,0l-0.676,0.115l0,0c-0.516,0.258-0.48-0.409-0.756-0.613
	c-0.436-0.196-0.756,0.222-1.138,0.32c-0.427,0.133-0.151,0.703-0.231,1.049c-0.142,0.24-0.391,0.364-0.613,0.498
	c-0.383,0.169-0.596-0.231-0.934-0.258l0,0l-0.898,0.871l0,0c-0.009,0.187,0.116,0.33,0.169,0.499
	c0.347,0.4-0.125,0.756-0.258,1.103c-0.267,0.214-0.623-0.027-0.845-0.027c-0.231,0.392-0.454,0.792-0.587,1.228
	c0.062,0.249,0.347,0.471,0.56,0.613c0,0.302-0.133,0.614,0,0.898l0,0h0.258l0,0c-0.018-0.355,0.018-0.702,0.089-1.022l0,0
	l-0.525-0.373l0,0c-0.054-0.276,0.089-0.472,0.142-0.703c0.178-0.32,0.703-0.116,0.996-0.178l0,0l0.579-0.898l0,0
	c0.195-0.267-0.071-0.48-0.231-0.675c-0.045-0.32,0.266-0.499,0.471-0.721c0.312-0.08,0.587,0.116,0.871,0.196
	c0.338-0.338,0.712-0.623,1.103-0.845c0.062-0.303-0.098-0.525-0.08-0.81c0.125-0.151,0.347-0.187,0.525-0.266
	c0.427-0.383,0.595,0.302,0.844,0.471l0,0l1.254-0.125l0,0c0.294-0.009,0.258-0.374,0.347-0.578c0.091-0.366,1.252-0.361,1.343,0
	c0.089,0.205,0.053,0.569,0.347,0.578l0,0l1.254,0.125l0,0c0.249-0.169,0.417-0.854,0.845-0.471c0.178,0.08,0.399,0.115,0.524,0.266
	c0.018,0.285-0.142,0.507-0.08,0.81c0.391,0.222,0.765,0.506,1.103,0.845c0.284-0.08,0.56-0.276,0.871-0.196
	c0.205,0.222,0.516,0.401,0.471,0.721c-0.16,0.195-0.427,0.409-0.231,0.675l0,0l0.578,0.898l0,0
	c0.293,0.062,0.818-0.143,0.996,0.178c0.053,0.231,0.196,0.427,0.142,0.703l0,0l-0.525,0.373l0,0
	c0.071,0.32,0.107,0.667,0.089,1.022l0,0h0.258l0,0c0.133-0.284,0-0.596,0-0.898c0.213-0.142,0.498-0.364,0.56-0.613
	c-0.133-0.436-0.355-0.836-0.587-1.228c-0.222,0-0.578,0.241-0.845,0.027c-0.133-0.347-0.604-0.703-0.258-1.103
	c0.053-0.168,0.178-0.312,0.169-0.499l0,0l-0.898-0.871l0,0c-0.338,0.027-0.551,0.427-0.934,0.258
	c-0.222-0.134-0.471-0.258-0.613-0.498c-0.08-0.347,0.196-0.916-0.231-1.049c-0.382-0.098-0.703-0.516-1.138-0.32
	c-0.275,0.205-0.24,0.871-0.756,0.613l0,0l-0.675-0.115l0,0c-0.178-0.312-0.222-0.836-0.64-0.907
	C56.741,73.382,56.421,73.382,56.114,73.338L56.114,73.338z M53.056,76.841c-0.987,1.032-1.992,2.152-1.983,3.583
	c0.116-0.009,0.25,0.027,0.347-0.027c0.258-0.854,0.471-1.725,1.165-2.392c1.987-2.308,6.01-2.304,7.994,0
	c0.694,0.667,0.907,1.538,1.165,2.392c0.098,0.054,0.231,0.018,0.347,0.027c0.009-1.432-0.996-2.552-1.983-3.583
	C58.551,75.413,54.603,75.421,53.056,76.841L53.056,76.841z M54.772,77.775c-0.996,0.4-2.037,1.449-2.125,2.561l0,0h0.258l0,0
	c0.365-0.791,0.943-1.618,1.778-2.009c0.957-0.468,2.844-0.467,3.797,0c0.835,0.391,1.413,1.218,1.778,2.009l0,0h0.258l0,0
	c-0.089-1.111-1.129-2.16-2.125-2.561C57.594,77.39,55.563,77.392,54.772,77.775L54.772,77.775z M56.114,79.989
	c-0.444,0.071-0.969,0.009-1.253,0.409c0,0.675,0,1.449,0,2.125l0,0l0.053,0.062l0,0c0.668,0.374,2.67,0.372,3.334,0l0,0
	l0.054-0.062l0,0c0-0.676,0-1.45,0-2.125C57.957,79.913,56.722,79.966,56.114,79.989L56.114,79.989z M55.118,84.391L55.118,84.391
	l-1.102-0.676l0,0c-0.116-0.044-0.302-0.098-0.409,0c0.062,0.373,0.48,0.649,0.756,0.88c1.434,0.638,3.003,0.638,4.437,0
	c0.276-0.231,0.694-0.507,0.756-0.88c-0.107-0.098-0.293-0.044-0.409,0l0,0l-1.103,0.676l0,0
	C57.035,84.703,56.127,84.703,55.118,84.391L55.118,84.391z M52.326,84.391c-0.089,0.053-0.231,0.106-0.231,0.231
	c1.022,1.138,2.321,1.894,3.841,1.956c0.43,0.012,0.86,0.012,1.29,0c1.521-0.062,2.819-0.818,3.841-1.956
	c0-0.125-0.142-0.178-0.231-0.231C57.568,86.827,55.595,86.827,52.326,84.391L52.326,84.391z M55.768,88.766
	c-0.231-0.08-0.196-0.32-0.24-0.498c0-0.542-0.658-0.391-0.987-0.587c-0.471-0.249-0.64,0.303-0.96,0.436
	c-0.231-0.054-0.436-0.169-0.614-0.347l0,0l0.054-0.667l0,0c-0.267-0.347-0.623-0.506-0.925-0.765
	c-0.347-0.133-0.604,0.116-0.88,0.24c-0.312,0.187-0.454-0.205-0.667-0.355c-0.08-0.302,0.107-0.498,0.293-0.694
	c0.222-0.418-0.258-0.764-0.382-1.138l0,0l-1.343,0.293l0,0c0.089,0.524,0.578-0.018,0.907,0.054
	c0.178,0.151,0.204,0.365,0.347,0.524c0.053,0.311-0.187,0.569-0.382,0.818l0,0l0.996,1.022l0,0c0.382,0.027,0.569-0.4,0.987-0.266
	c0.089,0.054,0.097,0.142,0.089,0.231c0.24-0.053,0.373,0.24,0.613,0.089c0.045,0.044,0.089,0.097,0.143,0.115
	c0.143,0.222-0.098,0.355-0.169,0.525c-0.16,0.444,0.471,0.444,0.64,0.728c0.516,0.418,0.614-0.347,1.049-0.462
	c0.462-0.187,0.747,0.205,1.103,0.347c0.018,0.232,0.08,0.472,0.178,0.641l0,0h1.929l0,0c0.098-0.169,0.161-0.409,0.178-0.641
	c0.356-0.142,0.64-0.533,1.103-0.347c0.436,0.115,0.533,0.88,1.049,0.462c0.169-0.284,0.8-0.284,0.64-0.728
	c-0.071-0.169-0.312-0.303-0.169-0.525c0.054-0.018,0.099-0.071,0.143-0.115c0.24,0.15,0.374-0.143,0.613-0.089
	c-0.008-0.089,0-0.177,0.089-0.231c0.418-0.134,0.605,0.293,0.987,0.266l0,0l0.996-1.022l0,0c-0.196-0.249-0.436-0.507-0.382-0.818
	c0.142-0.16,0.169-0.374,0.347-0.524c0.329-0.071,0.818,0.471,0.907-0.054l0,0l-1.343-0.293l0,0
	c-0.124,0.374-0.604,0.72-0.382,1.138c0.187,0.196,0.373,0.392,0.293,0.694c-0.213,0.151-0.355,0.542-0.667,0.355
	c-0.276-0.125-0.534-0.374-0.88-0.24c-0.302,0.258-0.658,0.418-0.925,0.765l0,0l0.054,0.667l0,0
	c-0.178,0.178-0.383,0.293-0.614,0.347c-0.32-0.133-0.489-0.685-0.96-0.436c-0.33,0.196-0.987,0.044-0.987,0.587
	c-0.044,0.178-0.009,0.418-0.24,0.498C57.073,88.682,56.09,88.682,55.768,88.766L55.768,88.766z M56.581,29.037h2.655l0.026-0.027
	l0,0c-1.253-1.173-2.25-2.499-2.072-4.286c-0.116-0.88,0.125-1.61,0.676-2.214l0,0L57.6,22.385l0,0
	c-0.333,0.015-0.677,0.005-1.019,0c-0.341,0.005-0.686,0.016-1.018,0l0,0l-0.267,0.125l0,0c0.551,0.604,0.792,1.334,0.676,2.214
	c0.178,1.787-0.818,3.112-2.072,4.286l0,0l0.026,0.027H56.581L56.581,29.037z M58.302,22.741c-0.081,0.168,0.124,0.151,0.204,0.168
	c2.045,0.16,4.037,0.445,5.797,1.29c0.747,0.347,0.623,1.699,1.663,1.458c0.276-0.08,0.214-0.391,0.178-0.586
	c-1.405-1.636-3.601-1.619-5.513-2.161C59.858,22.856,59.076,22.537,58.302,22.741L58.302,22.741L58.302,22.741L58.302,22.741z
	 M57.893,23.497c-0.071,0.079,0.009,0.178,0.089,0.205c1.796,0.026,3.53,0.168,4.988,1.022c0.24,0.267,0.551,0.488,0.925,0.347
	c0.044-0.089,0.16-0.054,0.177-0.142l0,0l-0.026-0.178l0,0c-0.694-0.454-1.503-0.649-2.303-0.845
	C60.499,23.684,59.253,23.373,57.893,23.497L57.893,23.497L57.893,23.497L57.893,23.497z M68.537,26.298
	c0.133-0.16,0.222-0.374,0.142-0.587c-0.578-0.898-1.547-1.316-2.481-1.601C67.265,24.688,66.963,26.645,68.537,26.298
	L68.537,26.298L68.537,26.298L68.537,26.298z M57.52,24.164c-0.053,0.142,0.116,0.142,0.169,0.205
	c1.449,0.063,2.801,0.338,4.232,0.436c0.053-0.036,0.018-0.116,0.027-0.169c-1.458-0.177-2.863-0.48-4.375-0.524l0,0L57.52,24.164
	L57.52,24.164L57.52,24.164z M57.866,24.929c-0.044,0.142,0.125,0.133,0.205,0.168c1.485,0.16,2.952,0.524,4.49,0.383
	c0.053-0.071,0.187-0.098,0.169-0.205c-0.133-0.178-0.365-0.044-0.524,0c-1.423,0-2.784-0.187-4.082-0.498
	C58.044,24.831,57.866,24.786,57.866,24.929L57.866,24.929L57.866,24.929L57.866,24.929z M69,25.212
	c0.649,0.649,1.076,1.388,1.574,2.099c0.195,0.231,0.498,0.258,0.756,0.24c0.178-0.133,0.4-0.337,0.267-0.586
	c-0.285-0.632-0.996-1.085-1.574-1.432C69.684,25.426,69.346,25.212,69,25.212L69,25.212L69,25.212L69,25.212z M62.241,26.094
	c-1.503,0.142-2.819-0.241-4.17-0.356c-0.009,0.097,0.089,0.168,0.178,0.178c1.876,0.25,3.859,0.756,5.798,0.347
	c0.178-0.089,0.382-0.178,0.498-0.373c-0.018-0.107,0.035-0.241-0.089-0.293C63.637,25.488,62.979,25.924,62.241,26.094
	L62.241,26.094L62.241,26.094L62.241,26.094z M65.327,26.209c-0.507,0.16-1.058,0.205-1.511,0.498
	c0.933,0.115,2.027,0.338,2.996,0.08c0.081-0.07,0.231-0.097,0.231-0.231c0.044-0.223-0.053-0.391-0.169-0.551
	C66.412,25.765,65.701,25.8,65.327,26.209L65.327,26.209L65.327,26.209L65.327,26.209z M73.313,28.859
	c0.142,0,0.408,0.053,0.471-0.178c0.107-1.227-1.147-1.948-2.072-2.445C72.6,26.965,72.28,28.245,73.313,28.859L73.313,28.859
	L73.313,28.859L73.313,28.859z M58.213,26.707c-0.071,0.062-0.097,0.151-0.089,0.258c0.587,0.303,1.005,0.987,1.663,1.111l0,0h0.089
	l0,0c0.035-0.169-0.151-0.347-0.089-0.525c0.231-0.222,0.524-0.267,0.755-0.471c-0.088-0.32-0.506-0.356-0.782-0.499
	c-0.436-0.088-0.987-0.097-1.369,0.125l0,0H58.213L58.213,26.707L58.213,26.707z M68.155,27.081
	c-0.551,0.124-1.165,0.116-1.716,0.231c0.044,0.143,0.213,0.187,0.347,0.24c0.827,0.187,1.778,0.436,2.65,0.169
	c0.196-0.178,0.231-0.427,0.205-0.694C69.213,26.68,68.59,26.92,68.155,27.081L68.155,27.081L68.155,27.081L68.155,27.081z
	 M62.677,27.462c0.187,0.356,0.623,0.481,0.987,0.579c0.196-0.258,0.507-0.338,0.818-0.374c0.054-0.035,0.018-0.098,0.026-0.151
	c-0.329-0.267-0.809-0.187-1.218-0.285C63.042,27.214,62.757,27.214,62.677,27.462L62.677,27.462L62.677,27.462L62.677,27.462z
	 M74.628,29.33c0.115,0.205,0.329,0.312,0.551,0.347c0.196-0.026,0.391-0.168,0.472-0.347c0.16-0.587-0.347-0.969-0.703-1.37
	c-0.294-0.213-0.587-0.426-0.907-0.586C74.192,27.979,74.583,28.61,74.628,29.33L74.628,29.33L74.628,29.33L74.628,29.33z
	 M60.427,27.96c0.018,0.231,0.285,0.241,0.409,0.4c0.596,0.293,1.254,0.534,1.956,0.471c0.436-0.417-0.418-0.524-0.347-0.934
	c-0.391-0.489-1.112-0.284-1.663-0.292C60.649,27.694,60.445,27.774,60.427,27.96L60.427,27.96L60.427,27.96L60.427,27.96z
	 M64.34,28.281c-0.063,0.231,0.213,0.16,0.32,0.258c0.472,0.088,0.845,0.48,1.396,0.292c0.063-0.56,0.827-0.124,0.845-0.675
	c-0.284-0.24-0.72-0.142-1.049-0.285C65.327,27.96,64.784,28.015,64.34,28.281L64.34,28.281L64.34,28.281L64.34,28.281z
	 M70.2,28.245c-0.444-0.009-0.925-0.035-1.342-0.027l0,0v0.089l0,0c0.853,0.259,1.645,0.952,2.649,0.614
	c0.187-0.213,0.471-0.382,0.382-0.703c-0.417-0.551-0.978,0.072-1.547-0.088l0,0L70.2,28.245L70.2,28.245L70.2,28.245z
	 M66.758,29.09c0.009,0.106-0.16,0.257,0.027,0.32c0.711-0.018,1.307,0.267,1.983,0.32c0.275,0.045,0.16-0.267,0.142-0.4
	c-0.391-0.462-0.987-0.649-1.601-0.561C67.132,28.895,66.865,28.876,66.758,29.09L66.758,29.09L66.758,29.09L66.758,29.09z
	 M60.462,28.921c-0.106,0.231,0.223,0.329,0.374,0.409c0.507,0.205,1.165,0.053,1.636,0.347c0.133-0.053,0.249,0.115,0.347-0.026
	c-0.071-0.205-0.293-0.293-0.436-0.445C61.726,29.152,61.014,29.232,60.462,28.921L60.462,28.921L60.462,28.921L60.462,28.921z
	 M63.521,29.472c0.151,0.453,0.685,0.507,0.987,0.845c0.196-0.009,0.499,0.285,0.587-0.027c-0.018-0.151,0.124-0.257,0.231-0.32
	c0.231-0.053,0.436-0.178,0.614-0.355c0.071-0.303-0.284-0.205-0.409-0.347C64.927,29.152,63.949,28.805,63.521,29.472
	L63.521,29.472L63.521,29.472L63.521,29.472z M71.187,29.535c0.969,0.516,1.974,1.245,3.174,1.076
	c0.204-0.178,0.32-0.427,0.267-0.676c-0.569-0.747-1.583-0.275-2.392-0.32l0,0L71.187,29.535L71.187,29.535L71.187,29.535z
	 M69.755,29.997c0.782,0.143,1.387,0.721,2.072,1.076l0,0L71.8,30.931l0,0c-0.453-0.747-1.218-1.129-1.956-1.37l0,0h-0.169
	L69.755,29.997L69.755,29.997L69.755,29.997z M65.825,30.548v0.063l0,0c0.72,0.205,1.325,0.782,2.152,0.64
	c-0.089-0.266-0.4-0.435-0.409-0.729c0.098-0.142,0.249-0.267,0.356-0.409c-0.409-0.213-0.969-0.204-1.432-0.116
	C66.234,30.086,65.852,30.21,65.825,30.548L65.825,30.548L65.825,30.548L65.825,30.548z M75.998,30.202
	c1.209,1.209,2.703,2.099,3.762,3.494c0.017,0.285,0.213,0.569,0.053,0.845c0,0.223,0.107,0.409,0.267,0.524
	c0.142,0,0.436,0.044,0.462-0.205c0.178-0.88-0.658-1.423-1.218-2.036c-1.023-1.05-2.143-1.868-3.21-2.801
	C76.033,30.041,75.909,30.095,75.998,30.202L75.998,30.202L75.998,30.202L75.998,30.202z M56.581,40.672l4.14,2.85l-1.512-4.721
	l0.053-0.116l4.349-3.263h-5.335l-1.696-5.231l-1.692,5.231h-5.335l4.349,3.263l0.053,0.116l-1.511,4.721L56.581,40.672
	L56.581,40.672z M68.333,30.726c0.071,0.231,0.24,0.418,0.409,0.614c0.436,0.097,0.729,0.64,1.253,0.435
	c0.445,0.071,0.685-0.347,1.103-0.347c0.036-0.053,0.063-0.178-0.026-0.205c-0.747-0.479-1.574-0.835-2.534-0.702l0,0L68.333,30.726
	L68.333,30.726L68.333,30.726z M75.473,30.637l3.353,3.032l0,0c0.089,0.081,0.213,0.081,0.32,0.116l0,0l-0.027-0.116l0,0
	c-1.156-1.112-2.321-2.188-3.53-3.148C75.517,30.521,75.438,30.54,75.473,30.637L75.473,30.637L75.473,30.637L75.473,30.637z
	 M73.543,31.108c0.026,0.4,0.586,0.196,0.88,0.285l0,0h0.116l0,0c0.036-0.177-0.222-0.311-0.382-0.374
	C73.953,30.957,73.712,30.984,73.543,31.108L73.543,31.108L73.543,31.108L73.543,31.108z M75.206,31.393
	c1.271,1.236,2.543,2.73,4.082,3.441c0.169,0.036,0.258-0.124,0.178-0.257c-0.373-0.41-0.871-0.507-1.28-0.819
	c-1.005-0.756-1.93-1.689-2.891-2.535l0,0h-0.088V31.393L75.206,31.393L75.206,31.393z M72.174,31.597
	c0.116,0.747,0.72,1.396,1.458,1.547c0.622-0.009,0.151-0.658,0.293-0.96c-0.347-0.658-1.058-0.444-1.547-0.756
	C72.236,31.375,72.2,31.491,72.174,31.597L72.174,31.597L72.174,31.597L72.174,31.597z M68.128,31.633v0.08l0,0
	c0.213,0.089,0.409,0.205,0.64,0.267c-0.071-0.187-0.267-0.311-0.436-0.382C68.261,31.607,68.181,31.571,68.128,31.633
	L68.128,31.633L68.128,31.633L68.128,31.633z M74.975,32.238c1.672,1.334,3.13,3.192,5.016,3.993
	c0.213,0.107,0.525,0.062,0.756,0.036c0.231-0.178-0.053-0.356-0.089-0.525c-0.524-0.702-1.494-0.062-2.063-0.64
	c-1.236-0.934-2.277-2.162-3.504-3.122l0,0l-0.142,0.027L74.975,32.238L74.975,32.238L74.975,32.238z M69.871,32.442
	c0.026,0.4,0.507,0.302,0.729,0.524c0.205,0.151,0.364,0.382,0.613,0.409c0.533,0.071,0.151-0.578,0.56-0.694
	c0-0.285-0.329-0.365-0.471-0.524C70.822,32.167,70.138,31.953,69.871,32.442L69.871,32.442L69.871,32.442L69.871,32.442z
	 M74.361,33.171c0.062,0.489-0.044,1.041,0.32,1.406c0.204,0.168,0.507,0.275,0.765,0.142c0.249-0.152,0.542,0.045,0.809-0.063
	c0.275-0.15-0.018-0.364-0.027-0.551c-0.391-0.506-0.835-0.942-1.458-1.023C74.672,32.94,74.353,32.967,74.361,33.171L74.361,33.171
	L74.361,33.171L74.361,33.171z M72.005,33.145c0.151,0.427-0.125,1.076,0.489,1.254c0.205,0.044,0.338,0.257,0.56,0.257
	c-0.044-0.195,0.054-0.436,0.231-0.551c0.125-0.035,0.285-0.08,0.32-0.205c-0.08-0.178-0.302-0.124-0.436-0.231
	c-0.365-0.205-0.667-0.542-1.076-0.613l0,0L72.005,33.145L72.005,33.145L72.005,33.145z M73.721,34.577
	c0.009,0.889,0.676,1.52,1.37,1.982c0.116,0.054,0.258,0.018,0.382,0.027c0.187-0.107,0.116-0.348,0.089-0.499
	c-0.258-0.782-1.325-0.64-1.485-1.511C74.014,34.425,73.686,34.318,73.721,34.577L73.721,34.577L73.721,34.577L73.721,34.577z
	 M77.1,34.834v0.089l0,0c0.222,0.355,0.845,0.417,0.792,0.934c0.044,0.035,0.115,0.026,0.178,0.026
	c0.151-0.356-0.285-0.64-0.524-0.872C77.403,34.923,77.198,34.638,77.1,34.834L77.1,34.834L77.1,34.834L77.1,34.834z M75.909,35.386
	c-0.187,1.129,0.569,2.063,1.458,2.659c0.356,0.044,0.151-0.409,0.293-0.587c0.285-0.48,0.098-1.12-0.178-1.547
	c-0.302-0.48-0.898-0.4-1.343-0.604C76.05,35.288,75.971,35.315,75.909,35.386L75.909,35.386L75.909,35.386L75.909,35.386z
	 M83.227,36c0.018,0.106-0.062,0.302,0.116,0.293c0.222,0.054,0.142-0.257,0.347-0.293c0.027-0.16-0.018-0.312-0.169-0.374
	C83.316,35.626,83.351,35.884,83.227,36L83.227,36L83.227,36L83.227,36z M83.458,36.817c0.285,0.213,0.605-0.009,0.845-0.142
	c0.035-0.125-0.054-0.223-0.143-0.267C83.84,36.337,83.619,36.622,83.458,36.817L83.458,36.817L83.458,36.817L83.458,36.817z
	 M78.274,36.729c-0.044,0.48-0.044,1.049,0,1.485c-0.009,0.062,0.071,0.018,0.116,0.036c0.063-0.116,0.08-0.276,0.231-0.32
	c0.489-0.053,0.88,0.32,1.432,0.231c-0.045-0.604-0.783-1.067-1.228-1.458C78.674,36.568,78.309,36.453,78.274,36.729L78.274,36.729
	L78.274,36.729L78.274,36.729z M79.67,36.675c0.863,0.524,1.547,1.627,2.65,1.396c0.169-0.044,0.151-0.222,0.178-0.348
	c-0.205-0.622-0.979-0.373-1.458-0.559c-0.49-0.107-0.881-0.472-1.37-0.578l0,0V36.675L79.67,36.675L79.67,36.675z M75.588,37.368
	c0.374,0.33,0.667,0.765,0.987,1.023c-0.231-0.481-0.568-0.96-0.987-1.308C75.517,37.146,75.464,37.289,75.588,37.368L75.588,37.368
	L75.588,37.368L75.588,37.368z M80.896,38.098c0.241,0.543,0.649,1.014,0.988,1.521c0.454,0.355,0.951,0.764,1.547,0.613
	c0.169-0.16,0.205-0.426,0.143-0.649c-0.32-0.516-0.925-0.49-1.37-0.782c-0.418-0.294-0.854-0.525-1.28-0.792l0,0L80.896,38.098
	L80.896,38.098L80.896,38.098z M78.967,38.392c-0.178,0.8,0.854,0.897,1.049,1.52c0.16,0.178,0.436,0.071,0.64,0.142
	c0.267-0.009,0.462,0.32,0.729,0.116c-0.392-0.952-1.37-1.646-2.356-1.833l0,0L78.967,38.392L78.967,38.392L78.967,38.392z
	 M77.251,39.121c0.409,0.355,0.258,0.933,0.756,1.253c0.293,0.205,0.445,0.535,0.818,0.552c0.258-0.026,0.516-0.044,0.729-0.204
	c-0.009-0.765-0.569-1.433-1.228-1.806c-0.382,0.035-0.738-0.063-1.076-0.027l0,0V39.121L77.251,39.121L77.251,39.121z
	 M68.386,41.681c-0.898,0.036-1.823-0.053-2.766-0.026l0,0l2.037,1.609l-1.014,2.534l0,0c0.827-0.48,1.645-0.951,2.472-1.432
	c0.755,0.561,1.493,1.174,2.249,1.752c-0.133-0.898-0.444-1.885-0.524-2.828l0,0l2.099-1.316l-2.624-0.142l-0.675-2.686
	L68.386,41.681L68.386,41.681L68.386,41.681z M85.325,39.912c0,0.64,0.143,1.29-0.116,1.859c-0.053,0.489-0.187,1.165,0.116,1.573
	c0.356,0.143,0.551-0.204,0.667-0.436c0.276-0.355,0.24-0.906,0.036-1.28c-0.178-0.596-0.142-1.307-0.56-1.779
	C85.414,39.84,85.361,39.858,85.325,39.912L85.325,39.912L85.325,39.912L85.325,39.912z M82.409,40.605
	c0.409,0.684,0.916,1.512,1.69,1.867c0.213,0.063,0.489,0.036,0.586-0.205c0.071-0.258,0.027-0.533-0.205-0.702
	c-0.631-0.4-1.342-0.587-1.894-1.165l0,0h-0.178V40.605L82.409,40.605L82.409,40.605z M80.311,40.722v0.088l0,0
	c0.302,0.374,0.596,0.792,1.138,0.703c0.293,0.036,0.498,0.276,0.817,0.258c-0.044-0.374-0.444-0.747-0.791-0.961
	c-0.365-0.053-0.685-0.248-1.103-0.177l0,0L80.311,40.722L80.311,40.722L80.311,40.722z M78.994,41.334
	c-0.142,0.88,0.942,1.254,1.227,1.957c0.294-0.098,0.134-0.542,0.178-0.818c0.018-0.054,0.071-0.098,0.116-0.142
	c0.24-0.098,0.453,0.196,0.613-0.036c-0.071-0.364-0.445-0.729-0.756-0.871c-0.33-0.143-0.792,0.062-1.085-0.177
	C79.19,41.264,79.056,41.201,78.994,41.334L78.994,41.334L78.994,41.334L78.994,41.334z M81.742,42.331
	c0.143,0.365,0.56,0.462,0.845,0.693c0.32,0.382,0.489,0.836,0.783,1.228l0,0h0.062l0,0c-0.151-0.809-0.631-1.761-1.52-1.983
	C81.848,42.268,81.777,42.25,81.742,42.331L81.742,42.331L81.742,42.331L81.742,42.331z M86.463,42.562
	c0.081,0.773-0.533,1.29-0.355,2.072c0.142,0.204,0.408,0.204,0.613,0.169c0.498-0.285,0.285-0.951,0.293-1.423
	c-0.071-0.346-0.24-0.648-0.382-0.969C86.517,42.375,86.481,42.473,86.463,42.562L86.463,42.562L86.463,42.562L86.463,42.562z
	 M83.28,42.562c0.009,0.382,0.426,0.658,0.64,0.986c0.542,0.454,0.845,1.228,1.609,1.201c0.098-0.196,0.063-0.489,0.027-0.702
	c-0.285-0.507-0.925-0.427-1.307-0.818C83.911,43.042,83.645,42.695,83.28,42.562L83.28,42.562L83.28,42.562L83.28,42.562z
	 M80.746,42.882c0.063,0.738,0.133,1.609,0.845,1.956c0.489,0.08,0.835,0.507,1.316,0.604c0.213-0.355-0.018-0.8-0.116-1.165
	c-0.32-0.596-0.72-1.485-1.547-1.458C81.075,42.837,80.879,42.775,80.746,42.882L80.746,42.882L80.746,42.882L80.746,42.882z
	 M80.106,44.162c0.213,0.285,0.133,0.774,0.524,0.907c0.213-0.293-0.009-0.623-0.142-0.88C80.417,44.047,80.15,43.958,80.106,44.162
	L80.106,44.162L80.106,44.162L80.106,44.162z M84.276,44.776c0.276,0.293,0.356,0.836,0.818,0.871
	c0.08-0.106-0.035-0.213-0.063-0.32c-0.222-0.249-0.498-0.56-0.756-0.729l0,0V44.776L84.276,44.776L84.276,44.776z M81.155,45.389
	c-0.214,0.552-0.294,1.37,0.116,1.868c0.079,0.151,0.231,0.239,0.409,0.23c0.222-0.115,0.16-0.4,0.347-0.551
	c0.195-0.036,0.462,0.196,0.587-0.088c0-0.783-0.569-1.307-1.227-1.61C81.289,45.229,81.19,45.3,81.155,45.389L81.155,45.389
	L81.155,45.389L81.155,45.389z M87.682,45.532c-0.053,0.187,0.134,0.356,0.151,0.551c0.382,2.01,0.942,3.984,0.756,6.18
	c0.044,0.818-1.076,1.138-0.871,2.019l0,0l-2.624-2.508l0,0c0.133-0.41,0.009-0.854-0.116-1.227
	c-0.284,0.097-0.338,0.409-0.498,0.613l0,0l-1.689-1.574l0,0c0.462-0.507,0.364-1.396,0.08-1.957
	c-0.133-0.116-0.267-0.24-0.462-0.231c-0.267,0.124-0.32,0.444-0.409,0.702l0,0l0.151,0.693l0,0
	c-0.329-0.035-0.525-0.516-0.854-0.667l0,0l-0.081,0.089l0,0c0.009,0.765,0.293,1.423,0.525,2.098l0,0l7.629,7.256l0.036-1.601l0,0
	c-0.417-0.542-1.013-1.014-1.521-1.521c0.249,0.018,0.516-0.106,0.703-0.32c0.427-0.72,0.4-1.671,0.347-2.561
	c-0.062-2.116-0.604-4.037-1.103-5.975C87.78,45.576,87.753,45.505,87.682,45.532L87.682,45.532L87.682,45.532L87.682,45.532z
	 M86.988,45.559c0.391,1.778,0.907,3.494,0.898,5.424c-0.062,0.498-0.551,0.854-0.462,1.369c0.081,0.098,0.249,0.062,0.347,0.036
	c0.587-0.685,0.347-1.832,0.32-2.713c-0.258-1.404-0.586-2.774-0.987-4.116l0,0H86.988L86.988,45.559L86.988,45.559z M83.458,46.145
	c-0.222,0.507-0.222,1.271,0,1.779c0.106,0.053,0.267,0.151,0.382,0.027c0.169-0.454,0.854-0.711,0.551-1.307
	c-0.116-0.383-0.347-0.659-0.587-0.96C83.556,45.674,83.583,46.021,83.458,46.145L83.458,46.145L83.458,46.145L83.458,46.145z
	 M86.313,45.825c0.427,1.449,0.587,3.015,0.88,4.518c0.107,0.08,0.133,0.257,0.284,0.231c0.107,0.044,0.116-0.063,0.151-0.116
	c0.063-0.249-0.24-0.338-0.267-0.551c-0.249-1.387-0.409-2.81-0.871-4.108l0,0l-0.089-0.089L86.313,45.825L86.313,45.825
	L86.313,45.825z M85.761,46.528c0.463,1.671,0.4,3.565,1.432,5.006c0.044,0.062,0.133,0.026,0.205,0.035
	c0-0.498-0.356-0.916-0.525-1.369c-0.444-1.289-0.542-2.722-0.934-4.028c-0.035-0.044-0.107-0.089-0.178-0.089l0,0V46.528
	L85.761,46.528L85.761,46.528z M85.059,46.465c0.275,1.743,0.729,3.406,0.969,5.158c0.187,0.649,0.356,1.387,0.987,1.778
	c0.16,0.107,0.294-0.053,0.436-0.088c0.169-0.106,0.169-0.329,0.116-0.489c-0.64-0.898-1.574-1.671-1.574-2.828
	c-0.151-1.227-0.48-2.374-0.729-3.557C85.219,46.403,85.094,46.376,85.059,46.465L85.059,46.465L85.059,46.465L85.059,46.465z
	 M60.285,49.204l-2.419,1.023l0,0c0.827,0.257,1.698,0.391,2.507,0.702l0,0l0.347,2.65l1.458-2.215l2.65,0.614l0,0
	c-0.569-0.711-1.111-1.431-1.716-2.134l0,0l1.37-2.099l-2.561,0.818l-1.725-2.036l0,0C60.143,47.39,60.294,48.297,60.285,49.204
	L60.285,49.204L60.285,49.204L60.285,49.204z M83.574,48.857c-0.044,0.409-0.231,1.103,0.347,1.253
	c0.08,0.081,0.08,0.223,0.205,0.258c0.267,0.026,0.444-0.223,0.498-0.436c0.071-0.605,0.542-1.548-0.178-1.983l0,0l-0.169,0.036
	L83.574,48.857L83.574,48.857L83.574,48.857z M81.911,52.734l2.276,2.277l-0.088,1.512l0,0c0.035,0.16,0.24,0.169,0.346,0.267
	c0.24,0.24,0.445,0.525,0.649,0.756l0,0l0.053-0.063l0,0c-0.036-0.445,0.044-0.88,0.267-1.192c0.365,0.125,0.551,0.534,0.872,0.783
	c-0.222,0.694,0.018,1.396,0.231,2.01c0.116,0.142,0.285,0.142,0.436,0.178c0.356-0.231,0-0.658-0.053-0.96
	c-0.107-0.142-0.195-0.32-0.116-0.498c0.036-0.044,0.089-0.063,0.142-0.053c0.383,0.329,0.64,0.703,0.96,1.05
	c0.018,0.685-1.271,0.889-0.667,1.6c0.32,0.116,0.472-0.178,0.703-0.293c0.195-0.258,0.178-0.659,0.489-0.818
	c0.375,0.026,0.383,0.587,0.729,0.524c0.063-0.711,0.364-1.751-0.525-2.178l0,0l-6.874-6.625H81.68L81.911,52.734L81.911,52.734
	L81.911,52.734z M82.436,54.513c-0.445,0.435-0.205,1.156-0.142,1.689c0.222,0.115,0.284-0.223,0.462-0.115
	c0.293,0.151,0.338,0.453,0.56,0.667c0.231,0.088,0.213-0.187,0.32-0.294c-0.125-0.916-0.16-1.894-0.765-2.587
	C82.409,53.775,82.613,54.309,82.436,54.513L82.436,54.513L82.436,54.513L82.436,54.513z M82.586,56.789
	c-0.578,0.604-0.587,1.441-0.56,2.294c0.08,0.125,0.205,0.125,0.32,0.125c0.409-0.143,0.355-0.756,0.854-0.73
	c0.098,0.071,0.143,0.285,0.32,0.205c0.205-0.187-0.017-0.409-0.035-0.613l0,0l-0.525-1.138l0,0
	C82.916,56.754,82.729,56.789,82.586,56.789L82.586,56.789L82.586,56.789L82.586,56.789z M83.867,57.545v2.152l0,0
	c0.063,0.071,0.133,0.142,0.232,0.115c0.168-0.124,0.222-0.444,0.498-0.374c0.08,0.124,0.213,0.116,0.347,0.116
	c0.213-0.409,0.311-1.112-0.027-1.485l0,0l-0.756-0.792l0,0C83.947,57.207,83.867,57.385,83.867,57.545L83.867,57.545L83.867,57.545
	L83.867,57.545z M85.761,58.763c-0.106,0.774-0.089,1.636,0.231,2.304c0.107,0.204,0.374,0.106,0.524,0.088
	c0.703-0.773-0.266-1.521-0.436-2.268c-0.035-0.106-0.018-0.258-0.142-0.293C85.779,58.532,85.85,58.728,85.761,58.763
	L85.761,58.763L85.761,58.763L85.761,58.763z M81.36,60.337c0.008,0.071-0.036,0.213,0.089,0.178c0.258-0.054,0.258-0.4,0.32-0.641
	c-0.027-0.16,0.071-0.365-0.089-0.463C81.439,59.634,81.555,60.07,81.36,60.337L81.36,60.337L81.36,60.337L81.36,60.337z
	 M82.293,60.053c-0.525,0.969,0.444,1.618,0.409,2.534c0.036,0.044,0.036,0.142,0.116,0.142c0.195,0.062,0.382-0.125,0.409-0.293
	c0.178-0.542,0.374-1.085,0.293-1.743c-0.195-0.391-0.08-0.934-0.444-1.227C82.729,59.448,82.533,59.875,82.293,60.053
	L82.293,60.053L82.293,60.053L82.293,60.053z M85.174,60.311c-0.107,0.685-0.222,1.582,0.329,2.098
	c0.16,0.018,0.462,0.116,0.551-0.089c0.178-0.632-0.373-1.04-0.471-1.601c-0.107-0.338,0-0.774-0.205-1.076
	C85.094,59.697,85.334,60.124,85.174,60.311L85.174,60.311L85.174,60.311L85.174,60.311z M83.983,60.284
	c0.035,0.8-0.143,1.529-0.321,2.241c0.205,0.124,0.356-0.125,0.463-0.258c0.035-0.809,0.854-1.476,0.382-2.303
	C84.267,59.919,84.071,60.088,83.983,60.284L83.983,60.284L83.983,60.284L83.983,60.284z M87.602,60.986
	c-0.293,0.605-1.378,0.783-1.049,1.601c0.089-0.045,0.373,0.098,0.373-0.116c0.854-0.427,1.103-1.298,1.28-2.098
	C87.94,60.471,87.859,60.799,87.602,60.986L87.602,60.986L87.602,60.986L87.602,60.986z M81.182,61.387
	c-0.16,0.569-0.507,1.058-0.489,1.698c0.329-0.071,0.569-0.445,0.96-0.294c0.222,0.081-0.098,0.542,0.293,0.409l0,0l0.374-0.64l0,0
	c-0.071-0.596-0.436-1.077-0.667-1.61C81.342,60.862,81.279,61.217,81.182,61.387L81.182,61.387L81.182,61.387L81.182,61.387z
	 M87.272,62.614c0.027,0.08-0.044,0.195,0.063,0.231c0.231,0.045,0.418-0.036,0.462-0.258c-0.018-0.169,0.16-0.293,0.089-0.436
	C87.61,62.116,87.495,62.462,87.272,62.614L87.272,62.614L87.272,62.614L87.272,62.614z M84.774,62.845
	c0.365,0.178,0.267-0.275,0.436-0.436c0.036-0.107-0.053-0.16-0.115-0.231C84.765,62.231,84.872,62.623,84.774,62.845L84.774,62.845
	L84.774,62.845L84.774,62.845z M86.054,63.2c-0.595,1.459-1.245,2.891-1.929,4.313c0.018,0.081-0.036,0.223,0.089,0.231l0,0
	l0.178-0.231l0,0c0.604-1.432,1.405-2.774,1.867-4.259C86.286,63.121,86.108,63.166,86.054,63.2L86.054,63.2L86.054,63.2
	L86.054,63.2z M84.979,63.725l-1.494,3.788l0,0c-0.044,0.223-0.142,0.569,0.062,0.756c0.169,0.027,0.293-0.168,0.347-0.294
	c0.008-0.8,0.293-1.485,0.551-2.188c0.329-0.809,0.738-1.591,0.969-2.445C85.201,63.209,85.023,63.547,84.979,63.725L84.979,63.725
	L84.979,63.725L84.979,63.725z M82.907,63.574c-0.862,0.035-1.174,1.005-1.574,1.574l0,0l0.027,0.24l0,0
	c0.471,0.169,0.889-0.489,1.315,0c0.285,0.116,0.303-0.222,0.4-0.356c0.08-0.408,0.391-0.657,0.471-1.076
	c0.036-0.205,0.072-0.489-0.027-0.667C83.218,63.166,83.12,63.512,82.907,63.574L82.907,63.574L82.907,63.574L82.907,63.574z
	 M80.772,63.574c-0.667-0.027-0.667,0.729-0.96,1.111c0.018,0.409-0.044,0.854,0.063,1.228c0.418,0.079,0.649-0.33,0.898-0.587
	c0.347-0.515,0.578-1.084,0.561-1.751C81.324,63.121,80.906,63.423,80.772,63.574L80.772,63.574L80.772,63.574L80.772,63.574z
	 M86.605,63.574c-0.578,1.76-1.191,3.512-2.392,5.015c-0.293,0.267-0.756,0.267-0.845,0.729c-0.071,0.16,0.116,0.16,0.178,0.231
	c0.8-0.088,1.138-0.987,1.574-1.538c0.658-1.45,1.245-2.908,1.779-4.402c-0.018-0.08,0.044-0.195-0.063-0.24
	C86.721,63.352,86.624,63.485,86.605,63.574L86.605,63.574L86.605,63.574L86.605,63.574z M84.33,63.69
	c-0.845,1.672-1.556,3.405-2.33,5.104c-0.151,0.578-0.267,1.423,0.32,1.841c0.195,0.027,0.276-0.196,0.32-0.32
	c0.249-0.872-0.258-1.788,0.205-2.597c0.569-1.405,1.182-2.774,1.84-4.144C84.632,63.308,84.365,63.565,84.33,63.69L84.33,63.69
	L84.33,63.69L84.33,63.69z M87.219,64.188c-0.818,2.169-1.556,4.446-3.646,6.002c-0.32,0.311-0.907,0.409-0.872,0.97
	c0.009,0.221,0.329,0.187,0.498,0.142c0.836-0.32,1.485-1.228,1.947-1.957c1.103-1.698,1.778-3.583,2.418-5.477
	C87.406,63.352,87.3,64.063,87.219,64.188L87.219,64.188L87.219,64.188L87.219,64.188z M82.204,74.565l0.872-1.022l-0.4-0.925l0,0
	c0.756-0.187,1.183-1.014,1.485-1.636l0,0l-0.089-0.027l0,0c-0.56,0.338-0.978,1.022-1.725,0.934l0,0l-3.059-6.678l-0.64,1.228
	L82.204,74.565L82.204,74.565L82.204,74.565z M81.822,65.824c-0.56-0.106-1.023,0.24-1.28,0.693c-0.107,0.4-0.089,0.881,0.231,1.174
	c0.124,0.125,0.249,0.258,0.444,0.195c0.472-0.445,0.854-0.978,1.103-1.539c0.071-0.178,0.106-0.373,0.089-0.587
	C82.249,65.521,81.982,65.717,81.822,65.824L81.822,65.824L81.822,65.824L81.822,65.824z M65.273,66.17
	c-0.044,0.142,0.053,0.258,0.142,0.32c0.143,0.044,0.213-0.071,0.258-0.178c0.044-0.142-0.053-0.257-0.142-0.32
	C65.389,65.948,65.318,66.073,65.273,66.17L65.273,66.17L65.273,66.17L65.273,66.17z M64.455,66.197
	c-0.053,0.151,0.063,0.267,0.169,0.32c0.143,0.036,0.241-0.071,0.293-0.169c0.054-0.151-0.062-0.267-0.169-0.32
	C64.606,65.992,64.508,66.1,64.455,66.197L64.455,66.197L64.455,66.197L64.455,66.197z M59.529,66.197
	c-0.044,0.143,0.054,0.259,0.143,0.32c0.151,0.044,0.213-0.071,0.267-0.169c0.036-0.142-0.062-0.257-0.151-0.32
	C59.645,65.983,59.573,66.1,59.529,66.197L59.529,66.197L59.529,66.197L59.529,66.197z M57.342,66.233
	c-0.036,0.151,0.044,0.284,0.178,0.347c0.106-0.009,0.24-0.08,0.258-0.205c0.035-0.16-0.044-0.293-0.178-0.347
	C57.493,66.028,57.36,66.108,57.342,66.233L57.342,66.233L57.342,66.233L57.342,66.233z M63.255,66.233
	c-0.036,0.142,0.053,0.23,0.151,0.32c0.142,0.053,0.231-0.089,0.293-0.178c0.036-0.142-0.053-0.231-0.152-0.32
	C63.406,65.992,63.317,66.135,63.255,66.233L63.255,66.233L63.255,66.233L63.255,66.233z M62.561,66.197
	c-0.018,0.143,0,0.276,0.142,0.32c0.107,0.018,0.205-0.054,0.231-0.142c0.018-0.133-0.009-0.275-0.142-0.32
	C62.686,66.037,62.588,66.108,62.561,66.197L62.561,66.197L62.561,66.197L62.561,66.197z M61.272,66.286
	c0,0.133,0.044,0.267,0.178,0.293c0.133,0,0.231-0.098,0.231-0.231c0.026-0.133-0.044-0.24-0.143-0.293
	C61.378,66.028,61.29,66.152,61.272,66.286L61.272,66.286L61.272,66.286L61.272,66.286z M58.916,66.233
	c-0.009,0.124-0.009,0.24,0.116,0.32c0.124,0.053,0.222-0.089,0.231-0.178c0.009-0.124,0.009-0.25-0.116-0.32
	C59.022,65.992,58.933,66.144,58.916,66.233L58.916,66.233L58.916,66.233L58.916,66.233z M60.489,66.26
	c-0.044,0.142,0.053,0.257,0.143,0.32c0.151,0.044,0.213-0.08,0.267-0.178c0.036-0.142-0.053-0.258-0.151-0.32
	C60.605,66.037,60.542,66.162,60.489,66.26L60.489,66.26L60.489,66.26L60.489,66.26z M62.881,67.603
	c0.026,0.267-0.258,0.23-0.409,0.23c-0.089,0.213-0.009,0.48,0.231,0.552c0.107,0.026,0.25,0.044,0.294,0.178
	c-0.053,0.782,0.285,1.814-0.294,2.419l0,0l0.027,0.026l0.996,0.035l0,0c0.107-0.329-0.169-0.488-0.32-0.702l0,0v-1.93l0,0
	c0.213-0.195,0.551-0.338,0.693-0.641c-0.187-0.062-0.4,0.116-0.641,0.089C63.45,67.62,63.068,67.104,62.881,67.603L62.881,67.603
	L62.881,67.603L62.881,67.603z M57.253,68.767c0.569,0.302,0.515,1.023,0.667,1.574l0,0l0.089,0.729h2.072l0,0
	c0.365-0.231,0.4-0.712,0.551-1.085c0.08-0.417,0.151-0.933,0.586-1.102c0.196-0.063,0.427-0.027,0.579,0.089
	c0.382,0.302,0.355,0.773,0.471,1.191l0,0h0.32v-1.396l0,0c-0.338-0.275-0.516-0.605-0.64-0.96l0,0H51.215l0,0
	c-0.125,0.355-0.303,0.685-0.64,0.96l0,0v1.396h0.32l0,0c0.116-0.418,0.089-0.889,0.471-1.191c0.151-0.116,0.383-0.151,0.579-0.089
	c0.436,0.169,0.506,0.685,0.586,1.102c0.151,0.374,0.187,0.854,0.551,1.085l0,0h2.072l0.089-0.729l0,0
	c0.151-0.551,0.098-1.272,0.667-1.574C56.313,68.715,56.851,68.715,57.253,68.767L57.253,68.767z M75.998,70.368
	c-0.107,0.293,0.168,0.205,0.293,0.347c0.026,0.293-0.08,0.641,0.08,0.88c0.667-0.071,0.854-0.835,1.139-1.316
	c0.062-0.32,0.249-0.587,0.178-0.96c-0.134-0.257-0.356-0.018-0.524,0C76.745,69.603,76.3,69.932,75.998,70.368L75.998,70.368
	L75.998,70.368L75.998,70.368z M57.431,70.225L57.431,70.225c-0.178-0.32,0.009-0.818-0.382-1.022c-0.295-0.011-0.639-0.011-0.934,0
	c-0.391,0.205-0.204,0.703-0.382,1.022l0,0H57.431L57.431,70.225z M60.987,69.585l-0.151,0.604h1.084l0,0
	c-0.08-0.32-0.063-0.756-0.382-0.898C61.316,69.292,61.058,69.336,60.987,69.585L60.987,69.585L60.987,69.585L60.987,69.585z
	 M64.829,69.754c-0.017,0.169-0.08,0.32-0.053,0.498l0,0l0.987,0.027l0,0c0.054-0.294-0.071-0.587-0.204-0.845
	C65.282,69.167,64.838,69.39,64.829,69.754L64.829,69.754L64.829,69.754L64.829,69.754z M70.075,70.546
	c-0.009,0.133,0.089,0.168,0.178,0.23c0.151,0.036,0.275-0.053,0.347-0.142c0.018-0.133-0.081-0.178-0.169-0.24
	C70.28,70.358,70.155,70.447,70.075,70.546L70.075,70.546L70.075,70.546L70.075,70.546z M69.293,70.519
	c-0.045,0.116,0.071,0.187,0.142,0.232c0.124,0.009,0.223-0.018,0.293-0.116c0.044-0.116-0.071-0.196-0.142-0.24
	C69.461,70.386,69.364,70.412,69.293,70.519L69.293,70.519L69.293,70.519L69.293,70.519z M68.359,70.546
	c-0.018,0.133,0.08,0.168,0.178,0.23c0.151,0.036,0.275-0.053,0.347-0.142c0.018-0.133-0.08-0.178-0.178-0.24
	C68.555,70.358,68.43,70.447,68.359,70.546L68.359,70.546L68.359,70.546L68.359,70.546z M67.488,70.572
	c0,0.133,0.098,0.231,0.231,0.231c0.133,0.009,0.267-0.035,0.293-0.169c0.009-0.133-0.089-0.178-0.178-0.24
	C67.683,70.368,67.514,70.431,67.488,70.572L67.488,70.572L67.488,70.572L67.488,70.572z M58.889,70.546
	c-0.026,0.106,0.027,0.187,0.116,0.257c0.106,0.026,0.187-0.027,0.257-0.115c0.027-0.116-0.026-0.196-0.116-0.257
	C59.031,70.403,58.951,70.457,58.889,70.546L58.889,70.546L58.889,70.546L58.889,70.546z M66.758,70.714
	c0.089,0.081,0.258,0.081,0.347,0c0.08-0.106,0-0.223-0.115-0.258C66.848,70.457,66.625,70.537,66.758,70.714L66.758,70.714
	L66.758,70.714L66.758,70.714z M59.618,70.572c-0.026,0.098,0.027,0.178,0.116,0.204c0.098,0.019,0.205-0.017,0.231-0.115
	c0.018-0.098-0.036-0.178-0.116-0.205C59.743,70.438,59.636,70.475,59.618,70.572L59.618,70.572L59.618,70.572L59.618,70.572z
	 M58.187,70.572c-0.027,0.098,0.035,0.178,0.116,0.204c0.097,0.019,0.178-0.035,0.204-0.115c0.018-0.098-0.036-0.178-0.115-0.205
	C58.292,70.431,58.213,70.492,58.187,70.572L58.187,70.572L58.187,70.572L58.187,70.572z M57.635,71.07L57.635,71.07
	c0.106-0.736-2.215-0.748-2.107,0l0,0H57.635L57.635,71.07z M60.721,70.75l-0.027,0.292h1.254l0,0
	c0.071-0.124-0.018-0.24-0.027-0.355C61.521,70.706,61.085,70.644,60.721,70.75L60.721,70.75L60.721,70.75L60.721,70.75z
	 M64.687,70.714c-0.124,0.081-0.24,0.205-0.231,0.356l0,0l1.601-0.027l0,0C66.011,70.457,65.14,70.821,64.687,70.714L64.687,70.714
	L64.687,70.714L64.687,70.714z M74.833,71.799c-0.374,0.311-0.88,0.667-0.845,1.192c0.409,0.177,1.031-0.517,1.191,0.151
	c0.249-0.054,0.454-0.329,0.587-0.525c0.151-0.409,0.302-0.854,0.373-1.253c0.071-0.161-0.106-0.044-0.142-0.125
	C75.553,71.302,75.242,71.675,74.833,71.799L74.833,71.799L74.833,71.799L74.833,71.799z M75.998,73.196
	c-0.124,0.391-1.005,0.533-0.551,0.96c0.275-0.009,0.427,0.453,0.729,0.231c0.462-0.569,1.129-1.129,0.898-1.92
	c-0.151-0.241-0.409-0.036-0.614-0.054C76.255,72.626,76.175,72.938,75.998,73.196L75.998,73.196L75.998,73.196L75.998,73.196z
	 M73.401,74.041l-0.667,1.805l0,0c-0.036,0.267,0.231,0.205,0.374,0.205c0.817-0.499,1.564-1.334,1.84-2.214
	c0-0.151,0.009-0.312-0.151-0.41C74.299,73.542,73.667,73.489,73.401,74.041L73.401,74.041L73.401,74.041L73.401,74.041z
	 M71.507,74.654c-0.16,0.4-0.285,0.854-0.231,1.316c0.471,0.098,0.801-0.32,1.138-0.614c0.267-0.4,0.64-0.871,0.409-1.37
	C72.28,73.969,71.765,74.173,71.507,74.654L71.507,74.654L71.507,74.654L71.507,74.654z M76.317,75.178
	c-0.472,2.125-1.289,4.118-2.33,6.002c-0.355,0.542-0.809,1.085-1.343,1.485c1.841-0.364,3.246-2.276,3.904-3.904
	c0.445-1.503,1.059-2.925,0.934-4.659l0,0L76.317,75.178L76.317,75.178L76.317,75.178z M74.539,76.495
	c-0.818,2.338-1.734,4.686-3.85,6.438l0,0l-0.872,0.783l0,0c1.325-0.383,2.721-0.845,3.557-2.152
	c1.325-1.832,2.036-3.921,2.535-6.091l0,0L74.539,76.495L74.539,76.495L74.539,76.495z M70.546,79.26l-0.907,1.28l0,0
	c-2.677,2.65-7.079,3.334-10.431,1.663c-0.204-0.08-0.4-0.187-0.614-0.231c-0.08,0.133,0.009,0.347,0.089,0.498l0,0l0.284,0.258l0,0
	c1.957,0.818,4.001,1.414,6.305,1.396c2.17,0.063,3.966-0.81,5.593-2.063l0,0l0.205,0.205l0,0c1.458-1.681,2.472-3.53,3.059-5.575
	C72.859,77.375,71.756,78.451,70.546,79.26L70.546,79.26L70.546,79.26L70.546,79.26z M80.195,76.895l1.254,8.723l0,0
	c0.026,0.143,0.231,0.081,0.32,0.054l0,0l0.089-0.089l-1.405-8.652l0,0C80.39,76.788,80.301,76.957,80.195,76.895L80.195,76.895
	L80.195,76.895L80.195,76.895z M77.278,80.487l0.729,5.211l2.97-0.258l-0.845-6.998l-0.205-0.872l0,0
	C79.083,78.504,78.167,79.509,77.278,80.487L77.278,80.487L77.278,80.487L77.278,80.487z M65.185,81.652
	c-1.778,0.276-3.922,0.641-5.602-0.115c-0.027-0.054-0.116-0.081-0.089-0.151c0.195-0.187,0.462-0.018,0.676,0
	c2.009,0.561,4.393,0.285,6.179-0.551c0.018-0.116-0.115-0.106-0.178-0.142c-2.374,0.275-4.926,0.124-7.229-0.205
	c-0.169,0-0.276,0.089-0.347,0.231l0,0l-0.027,0.96l0.081,0.089l0,0c2.125,0.667,4.588,1.556,6.909,0.702
	c0.765-0.213,1.467-0.56,2.187-0.88c0.827-0.685,1.903-1.263,2.393-2.277C68.448,80.007,66.83,80.869,65.185,81.652L65.185,81.652
	L65.185,81.652L65.185,81.652z M76.815,82.025l0.462,4.438l0.32-0.676l-0.551-5.016l0,0C76.496,81.029,76.887,81.608,76.815,82.025
	L76.815,82.025L76.815,82.025L76.815,82.025z M74.859,82.435c0.25,1.671,0.418,3.379,0.756,5.015l0,0l3.557-0.32l0,0
	c0.063-0.124,0.134-0.239,0.151-0.382c-0.765-0.169-1.44,0.187-2.223,0.151c-0.133-0.293-0.098-0.72-0.142-1.084l0,0l-0.499-4.366
	l0,0C76.007,81.963,75.393,82.105,74.859,82.435L74.859,82.435L74.859,82.435L74.859,82.435z M57.804,82.497
	c0.053-0.054,0.018-0.133,0.036-0.205c-0.816-0.031-1.701-0.031-2.517,0c0.018,0.071-0.017,0.15,0.036,0.205
	C55.989,82.659,57.175,82.659,57.804,82.497L57.804,82.497z M74.833,87.974c0.293,0.01,0.267-0.444,0.409-0.667l0,0l-0.64-4.722
	l-0.329,0.206L74.833,87.974L74.833,87.974L74.833,87.974z M73.197,83.431l0.436,5.415l0.088,0.125l2.624-0.036l0,0
	c0.169-0.07,0.453-0.07,0.471-0.32l0,0l-0.062-0.053l0,0c-0.703-0.026-1.378,0.168-2.037,0.053l0,0l-0.151-0.32l-0.551-5.335l0,0
	C73.783,83.208,73.472,83.27,73.197,83.431L73.197,83.431L73.197,83.431L73.197,83.431z M73.054,89.37l0.347-0.347l-0.498-5.478
	l-0.374,0.142L73.054,89.37L73.054,89.37L73.054,89.37z M72.121,90.304c0.782,0.054,1.68,0.063,2.392-0.231l0,0V90.02l0,0
	c-0.542,0-1.049,0.097-1.574,0.142l0,0L72.85,90.02l-0.587-6.216l-0.436,0.178L72.121,90.304L72.121,90.304L72.121,90.304z
	 M71.16,84.329l0.089,3.264l0,0c-0.267,1.146-0.738,2.338-0.382,3.592l0,0h0.142l0.792-0.817l-0.267-6.243l0,0
	C71.409,84.195,71.24,84.222,71.16,84.329L71.16,84.329L71.16,84.329L71.16,84.329z M70.484,84.444l0.382,0.294l0.027-0.409l0,0
	C70.787,84.435,70.618,84.409,70.484,84.444L70.484,84.444L70.484,84.444L70.484,84.444z M69.729,84.568
	c0.347,0.303,0.756,0.445,1.138,0.667c0.151-0.418-0.436-0.347-0.613-0.613C70.138,84.4,69.897,84.577,69.729,84.568L69.729,84.568
	L69.729,84.568L69.729,84.568z M68.475,84.738c0.729,0.435,1.503,0.783,2.276,1.111c0.054-0.107,0-0.25,0.054-0.355
	c-0.561-0.223-1.112-0.454-1.601-0.872l0,0L68.475,84.738L68.475,84.738L68.475,84.738z M64.073,85.093l0.027,0.169l0,0
	c2.009,1.022,4.046,1.957,6.127,2.801l0,0l0.231-0.436l0,0c-1.654-0.72-3.281-1.476-4.899-2.276l0,0l-0.578-0.437l0,0
	C64.651,84.995,64.144,84.453,64.073,85.093L64.073,85.093L64.073,85.093L64.073,85.093z M67.248,84.915
	c1.067,0.739,2.276,1.139,3.477,1.574c0.009-0.097-0.026-0.213,0.027-0.292c-0.88-0.498-1.867-0.748-2.686-1.396l0,0L67.248,84.915
	L67.248,84.915L67.248,84.915z M65.709,84.968c1.228,0.925,2.65,1.378,3.993,2.019l0,0l0.898,0.347l0,0
	c0.08-0.142,0.107-0.311,0.089-0.498c-1.307-0.57-2.694-0.952-3.841-1.894C66.447,84.906,66.065,85.004,65.709,84.968L65.709,84.968
	L65.709,84.968L65.709,84.968z M63.139,85.352c0.063,0.266,0.196,0.551,0.472,0.667l0,0l5.976,2.748l0,0
	c0.08,0.027,0.16,0.063,0.258,0.053c0.107-0.133,0.125-0.303,0.231-0.436l0,0l-5.042-2.303l-1.743-0.845l0,0
	C63.228,85.253,63.193,85.307,63.139,85.352L63.139,85.352L63.139,85.352L63.139,85.352z M77.625,86.542
	c0.818,0.045,1.761-0.391,2.392,0.267l0,0l1.663-0.347l-0.382-0.587l-3.406,0.347L77.625,86.542L77.625,86.542L77.625,86.542z
	 M62.321,87.423c-0.338,0-0.578-0.222-0.898-0.266c-0.125,0.933-0.027,1.929,0.027,2.863l0,0l0.062,0.053l0,0
	c0.854,0.036,1.601-0.187,2.419-0.231c-0.018-1.112-0.053-2.285-0.115-3.415c-0.205-0.134-0.409-0.115-0.56,0.115l0,0L62.321,87.423
	L62.321,87.423L62.321,87.423z M64.713,90.367c0-1.174-0.098-2.393-0.142-3.584l0,0l-0.436-0.205l0.116,3.814L64.713,90.367
	L64.713,90.367L64.713,90.367z M79.581,86.872c-0.036,0.152,0.053,0.32,0.142,0.462c0.08,0.098,0.178,0.16,0.293,0.178
	c0.107-0.08,0.089-0.24,0.089-0.32C79.928,87.085,79.803,86.845,79.581,86.872L79.581,86.872L79.581,86.872L79.581,86.872z
	 M64.944,87.129c0.089,0.836-0.053,1.761,0.125,2.561l0,0l2.214-0.231l0,0c0.231-0.346,0.16-0.871,0.168-1.342l0,0l-2.445-1.129
	L64.944,87.129L64.944,87.129L64.944,87.129z M70.138,89.085h0.027l0,0c0.071,0.196,0.079,0.454,0.267,0.578
	c0.08-0.151,0.071-0.347,0.115-0.525c0.205-0.596,0.418-1.182,0.498-1.832l0,0l-0.089-0.15l-0.845,1.662L70.138,89.085
	L70.138,89.085L70.138,89.085z M75.09,88.294c1.592,0,3.184-0.178,4.669-0.524l0,0l-0.409-0.347l-3.762,0.293L75.09,88.294
	L75.09,88.294L75.09,88.294z M60.809,87.592c0.044,0.151-0.115,0.436,0.143,0.444c0.187,0.026,0.169-0.151,0.205-0.267
	c-0.036-0.116-0.018-0.276-0.169-0.321C60.917,87.467,60.827,87.521,60.809,87.592L60.809,87.592L60.809,87.592L60.809,87.592z
	 M60.489,88.499l0.116,1.921l0,0c-0.116,0.125-0.081,0.311-0.259,0.409l0,0l0.96-0.142l0,0c-0.24-0.693-0.116-1.609-0.24-2.392
	C60.863,88.144,60.605,88.304,60.489,88.499L60.489,88.499L60.489,88.499L60.489,88.499z M67.692,89.726
	c-0.463,0.302-1.094,0.168-1.61,0.347c-0.009,0.143,0.178,0.071,0.24,0.178c0.471,0.116,1.005,0.027,1.485-0.035l0,0l0.089-0.116
	l0,0c0.098-0.347-0.116-0.871,0.284-1.049c0.561,0.151,1.094,0.427,1.663,0.444c-0.036-0.169-0.107-0.364-0.293-0.409l0,0
	l-1.743-0.818L67.692,89.726L67.692,89.726L67.692,89.726z M57.982,88.766c-0.044,0.223-0.009,0.48-0.142,0.667
	c0,0.356-0.036,0.765,0.142,1.022c0.791-0.044,1.565-0.133,2.303-0.293c0.062-0.481,0.026-0.987-0.089-1.433
	c-0.312,0.125-0.605,0.383-0.987,0.241l0,0l-0.436-0.613l0,0C58.48,88.428,58.044,88.392,57.982,88.766L57.982,88.766L57.982,88.766
	L57.982,88.766z M77.136,88.525c-0.053,0.188,0.009,0.401,0.115,0.561c0.071,0.116,0.196,0.116,0.294,0.169
	c0.098-0.142,0.035-0.365,0.053-0.552C77.447,88.642,77.34,88.454,77.136,88.525L77.136,88.525L77.136,88.525L77.136,88.525z
	 M73.143,89.815c1.378-0.036,2.846-0.018,4.135-0.356c-0.063-0.124-0.222-0.249-0.382-0.293l0,0l-3.228,0.125L73.143,89.815
	L73.143,89.815L73.143,89.815z M57.226,89.406c0.071,0.614-0.169,1.352,0.205,1.832c0.515,0.089,1.191,0.151,1.512-0.347
	c0.026-0.258-0.312-0.124-0.436-0.116c-0.302,0.018-0.587,0.08-0.907,0.054c-0.116-0.444-0.009-0.987-0.08-1.458l0,0L57.226,89.406
	L57.226,89.406L57.226,89.406z M56.728,91.006c0.035,0.098,0.08,0.223,0.231,0.178l0,0l0.089-0.151
	c-0.036-0.551-0.036-1.121-0.116-1.663l0,0h-0.205V91.006L56.728,91.006L56.728,91.006z M74.921,90.277
	c0.018,0.107,0.063,0.223,0.169,0.267l0,0h0.089l0,0c-0.026-0.16,0.196-0.409-0.089-0.472
	C74.948,90.064,74.966,90.188,74.921,90.277L74.921,90.277L74.921,90.277L74.921,90.277z M62.321,90.367
	c-0.063,0.053-0.125,0.133-0.054,0.205c0.071,0.026,0.196,0.07,0.32,0.053c0.026-0.08,0.115-0.133,0.178-0.204
	c0.303-0.071,0.205,0.516,0.525,0.267c0.08-0.115,0.205-0.258,0.116-0.409l0,0L62.321,90.367L62.321,90.367L62.321,90.367z
	 M63.984,90.775c-0.062,0.054-0.125,0.152-0.053,0.231c0.658,0.036,1.343-0.053,1.983-0.142c0.053-0.054,0.018-0.142,0.027-0.205
	c-0.08-0.081-0.151-0.178-0.267-0.178C65.113,90.579,64.526,90.624,63.984,90.775L63.984,90.775L63.984,90.775L63.984,90.775z
	 M71.943,90.687c-0.214,0.124-0.427,0.338-0.551,0.551c1.208-0.009,2.427-0.195,3.646-0.294l0,0l-0.436-0.436L71.943,90.687
	L71.943,90.687L71.943,90.687z M59.146,91.123c-0.071,0.062-0.053,0.168-0.053,0.266c0.116,0.125,0.285,0.116,0.462,0.116l0,0
	l2.854-0.241l0.231-0.115l0,0c-0.063-0.089-0.071-0.285-0.231-0.258C61.334,90.998,60.276,91.14,59.146,91.123L59.146,91.123
	L59.146,91.123L59.146,91.123z M54.656,22.91c-2.045,0.16-4.01,0.445-5.771,1.29c-0.747,0.347-0.65,1.699-1.69,1.458
	c-0.275-0.08-0.214-0.391-0.178-0.586c0.106-0.91,4.047-2.215,7.583-2.425C54.874,22.654,54.972,22.869,54.656,22.91L54.656,22.91z
	 M55.27,23.497c0.071,0.079-0.009,0.178-0.089,0.205c-1.796,0.026-3.53,0.168-4.988,1.022c-0.24,0.267-0.551,0.488-0.925,0.347
	c-0.045-0.089-0.161-0.054-0.178-0.142l0,0l0.026-0.178l0,0c0.694-0.454,1.503-0.649,2.303-0.845
	C52.664,23.684,53.91,23.373,55.27,23.497L55.27,23.497L55.27,23.497L55.27,23.497z M44.625,26.298
	c-0.133-0.16-0.222-0.374-0.142-0.587c0.578-0.898,1.547-1.316,2.481-1.601C45.897,24.688,46.2,26.645,44.625,26.298L44.625,26.298
	L44.625,26.298L44.625,26.298z M55.643,24.164c0.054,0.142-0.115,0.142-0.169,0.205c-1.449,0.063-2.768,0.329-4.199,0.428
	c-0.053-0.036-0.051-0.108-0.06-0.161c1.458-0.177,2.863-0.48,4.375-0.524l0,0L55.643,24.164L55.643,24.164L55.643,24.164z
	 M55.296,24.929c0.044,0.142-0.125,0.133-0.205,0.168c-1.485,0.16-2.952,0.524-4.49,0.383c-0.054-0.071-0.187-0.098-0.169-0.205
	c0.134-0.178,0.365-0.044,0.525,0c1.423,0,2.783-0.187,4.082-0.498C55.118,24.831,55.296,24.786,55.296,24.929L55.296,24.929
	L55.296,24.929L55.296,24.929z M44.163,25.212c-0.649,0.649-1.076,1.388-1.574,2.099c-0.195,0.231-0.498,0.258-0.756,0.24
	c-0.178-0.133-0.4-0.337-0.267-0.586c0.285-0.632,0.996-1.085,1.574-1.432C43.479,25.426,43.816,25.212,44.163,25.212L44.163,25.212
	L44.163,25.212L44.163,25.212z M50.921,26.094c1.503,0.142,2.819-0.241,4.17-0.356c0.009,0.097-0.089,0.168-0.178,0.178
	c-1.876,0.25-3.859,0.756-5.798,0.347c-0.178-0.089-0.382-0.178-0.498-0.373c0.018-0.107-0.036-0.241,0.089-0.293
	C49.525,25.488,50.184,25.924,50.921,26.094L50.921,26.094L50.921,26.094L50.921,26.094z M47.836,26.209
	c0.507,0.16,1.058,0.205,1.512,0.498c-0.934,0.115-2.028,0.338-2.997,0.08c-0.081-0.07-0.231-0.097-0.231-0.231
	c-0.044-0.223,0.053-0.391,0.169-0.551C46.75,25.765,47.462,25.8,47.836,26.209L47.836,26.209L47.836,26.209L47.836,26.209z
	 M39.85,28.859c-0.142,0-0.409,0.053-0.471-0.178c-0.106-1.227,1.147-1.948,2.072-2.445C40.563,26.965,40.882,28.245,39.85,28.859
	L39.85,28.859L39.85,28.859L39.85,28.859z M54.95,26.707c0.071,0.062,0.097,0.151,0.089,0.258c-0.587,0.303-1.005,0.987-1.663,1.111
	l0,0h-0.089l0,0c-0.035-0.169,0.151-0.347,0.089-0.525c-0.231-0.222-0.524-0.267-0.755-0.471c0.089-0.32,0.507-0.356,0.782-0.499
	c0.436-0.088,0.987-0.097,1.37,0.125l0,0H54.95L54.95,26.707L54.95,26.707z M45.008,27.081c0.551,0.124,1.165,0.116,1.716,0.231
	c-0.044,0.143-0.213,0.187-0.347,0.24c-0.827,0.187-1.778,0.436-2.65,0.169c-0.196-0.178-0.231-0.427-0.205-0.694
	C43.95,26.68,44.572,26.92,45.008,27.081L45.008,27.081L45.008,27.081L45.008,27.081z M50.486,27.462
	c-0.187,0.356-0.623,0.481-0.987,0.579c-0.196-0.258-0.507-0.338-0.818-0.374c-0.054-0.035-0.018-0.098-0.026-0.151
	c0.329-0.267,0.809-0.187,1.218-0.285C50.122,27.214,50.405,27.214,50.486,27.462L50.486,27.462L50.486,27.462L50.486,27.462z
	 M38.535,29.33c-0.115,0.205-0.329,0.312-0.551,0.347c-0.196-0.026-0.391-0.168-0.471-0.347c-0.16-0.587,0.347-0.969,0.702-1.37
	c0.294-0.213,0.587-0.426,0.907-0.586C38.97,27.979,38.579,28.61,38.535,29.33L38.535,29.33L38.535,29.33L38.535,29.33z
	 M52.735,27.96c-0.018,0.231-0.285,0.241-0.409,0.4c-0.596,0.293-1.254,0.534-1.956,0.471c-0.436-0.417,0.418-0.524,0.347-0.934
	c0.392-0.489,1.111-0.284,1.663-0.292C52.513,27.694,52.718,27.774,52.735,27.96L52.735,27.96L52.735,27.96L52.735,27.96z
	 M48.823,28.281c0.063,0.231-0.213,0.16-0.32,0.258c-0.472,0.088-0.845,0.48-1.396,0.292c-0.063-0.56-0.827-0.124-0.845-0.675
	c0.284-0.24,0.72-0.142,1.049-0.285C47.836,27.96,48.378,28.015,48.823,28.281L48.823,28.281L48.823,28.281L48.823,28.281z
	 M44.216,28.171c0.079,0.008,0.17,0.076,0.129,0.151c-0.007,0.073-0.588,0.179-1.062,0.417c-0.522,0.264-1.313,0.424-1.667,0.158
	c-0.315-0.342-0.454-0.459-0.296-0.718c0.135-0.387,1.194-0.065,1.662,0C43.31,28.232,44.033,28.149,44.216,28.171L44.216,28.171z
	 M46.404,29.09c-0.009,0.106,0.16,0.257-0.027,0.32c-0.711-0.018-1.307,0.267-1.983,0.32c-0.275,0.045-0.16-0.267-0.142-0.4
	c0.391-0.462,0.987-0.649,1.601-0.561C46.031,28.895,46.297,28.876,46.404,29.09L46.404,29.09L46.404,29.09L46.404,29.09z
	 M52.7,28.921c0.106,0.231-0.223,0.329-0.374,0.409c-0.507,0.205-1.165,0.053-1.636,0.347c-0.133-0.053-0.249,0.115-0.347-0.026
	c0.071-0.205,0.293-0.293,0.436-0.445C51.437,29.152,52.148,29.232,52.7,28.921L52.7,28.921L52.7,28.921L52.7,28.921z
	 M49.641,29.472c-0.151,0.453-0.685,0.507-0.987,0.845c-0.196-0.009-0.499,0.285-0.587-0.027c0.018-0.151-0.125-0.257-0.231-0.32
	c-0.231-0.053-0.436-0.178-0.614-0.355c-0.071-0.303,0.285-0.205,0.409-0.347C48.236,29.152,49.214,28.805,49.641,29.472
	L49.641,29.472L49.641,29.472L49.641,29.472z M41.976,29.535c-0.969,0.516-1.974,1.245-3.174,1.076
	c-0.205-0.178-0.32-0.427-0.267-0.676c0.569-0.747,1.583-0.275,2.392-0.32l0,0L41.976,29.535L41.976,29.535L41.976,29.535z
	 M43.408,29.997c-0.783,0.143-1.388,0.721-2.072,1.076l0,0l0.027-0.142l0,0c0.453-0.747,1.218-1.129,1.956-1.37l0,0
	C43.628,29.365,43.597,29.925,43.408,29.997L43.408,29.997L43.408,29.997z M47.338,30.548v0.063l0,0
	c-0.721,0.205-1.325,0.782-2.152,0.64c0.089-0.266,0.4-0.435,0.409-0.729c-0.098-0.142-0.249-0.267-0.356-0.409
	c0.409-0.213,0.969-0.204,1.432-0.116C46.929,30.086,47.312,30.21,47.338,30.548L47.338,30.548L47.338,30.548L47.338,30.548z
	 M37.165,30.202c-1.209,1.209-2.703,2.099-3.762,3.494c-0.018,0.285-0.213,0.569-0.053,0.845c0,0.223-0.107,0.409-0.267,0.524
	c-0.142,0-0.436,0.044-0.462-0.205c-0.178-0.88,0.658-1.423,1.218-2.036c1.023-1.05,2.143-1.868,3.21-2.801
	C37.129,30.041,37.254,30.095,37.165,30.202L37.165,30.202L37.165,30.202L37.165,30.202z M44.83,30.726
	c-0.071,0.231-0.24,0.418-0.409,0.614c-0.436,0.097-0.729,0.64-1.254,0.435c-0.444,0.071-0.684-0.347-1.102-0.347
	c-0.036-0.053-0.063-0.178,0.026-0.205c0.747-0.479,1.574-0.835,2.534-0.702l0,0L44.83,30.726L44.83,30.726L44.83,30.726z
	 M37.69,30.637l-3.353,3.032l0,0c-0.089,0.081-0.213,0.081-0.32,0.116l0,0l0.027-0.116l0,0c1.156-1.112,2.321-2.188,3.53-3.148
	C37.646,30.521,37.725,30.54,37.69,30.637L37.69,30.637L37.69,30.637L37.69,30.637z M39.619,31.108
	c-0.026,0.4-0.586,0.196-0.88,0.285l0,0h-0.115l0,0c-0.036-0.177,0.222-0.311,0.381-0.374C39.21,30.957,39.451,30.984,39.619,31.108
	L39.619,31.108L39.619,31.108L39.619,31.108z M37.957,31.393c-1.271,1.236-2.543,2.73-4.082,3.441
	c-0.169,0.036-0.258-0.124-0.178-0.257c0.373-0.41,0.871-0.507,1.28-0.819c1.005-0.756,1.93-1.689,2.89-2.535l0,0h0.089V31.393
	L37.957,31.393L37.957,31.393z M40.989,31.597c-0.115,0.747-0.72,1.396-1.458,1.547c-0.622-0.009-0.151-0.658-0.293-0.96
	c0.347-0.658,1.058-0.444,1.547-0.756C40.926,31.375,40.962,31.491,40.989,31.597L40.989,31.597L40.989,31.597L40.989,31.597z
	 M45.035,31.633v0.08l0,0c-0.213,0.089-0.409,0.205-0.64,0.267c0.071-0.187,0.267-0.311,0.436-0.382
	C44.901,31.607,44.981,31.571,45.035,31.633L45.035,31.633L45.035,31.633L45.035,31.633z M38.188,32.238
	c-1.672,1.334-3.13,3.192-5.016,3.993c-0.213,0.107-0.525,0.062-0.756,0.036c-0.231-0.178,0.053-0.356,0.089-0.525
	c0.524-0.702,1.494-0.062,2.063-0.64c1.236-0.934,2.277-2.162,3.504-3.122l0,0l0.142,0.027L38.188,32.238L38.188,32.238
	L38.188,32.238z M43.292,32.442c-0.026,0.4-0.507,0.302-0.729,0.524c-0.204,0.151-0.364,0.382-0.613,0.409
	c-0.533,0.071-0.151-0.578-0.56-0.694c0-0.285,0.329-0.365,0.471-0.524C42.34,32.167,43.025,31.953,43.292,32.442L43.292,32.442
	L43.292,32.442L43.292,32.442z M38.801,33.171c-0.062,0.489,0.044,1.041-0.32,1.406c-0.204,0.168-0.507,0.275-0.765,0.142
	c-0.249-0.152-0.542,0.045-0.809-0.063c-0.276-0.15,0.017-0.364,0.026-0.551c0.391-0.506,0.836-0.942,1.458-1.023
	C38.49,32.94,38.811,32.967,38.801,33.171L38.801,33.171L38.801,33.171L38.801,33.171z M41.158,33.145
	c-0.151,0.427,0.125,1.076-0.489,1.254c-0.204,0.044-0.338,0.257-0.56,0.257c0.044-0.195-0.054-0.436-0.231-0.551
	c-0.125-0.035-0.285-0.08-0.32-0.205c0.08-0.178,0.302-0.124,0.436-0.231c0.365-0.205,0.667-0.542,1.076-0.613l0,0L41.158,33.145
	L41.158,33.145L41.158,33.145z M39.441,34.577c-0.009,0.889-0.676,1.52-1.369,1.982c-0.116,0.054-0.258,0.018-0.382,0.027
	c-0.187-0.107-0.116-0.348-0.089-0.499c0.258-0.782,1.325-0.64,1.485-1.511C39.148,34.425,39.477,34.318,39.441,34.577
	L39.441,34.577L39.441,34.577L39.441,34.577z M36.063,34.834v0.089l0,0c-0.222,0.355-0.845,0.417-0.792,0.934
	c-0.044,0.035-0.115,0.026-0.178,0.026c-0.151-0.356,0.285-0.64,0.525-0.872C35.76,34.923,35.964,34.638,36.063,34.834
	L36.063,34.834L36.063,34.834L36.063,34.834z M37.254,35.386c0.187,1.129-0.569,2.063-1.458,2.659
	c-0.356,0.044-0.151-0.409-0.293-0.587c-0.285-0.48-0.098-1.12,0.178-1.547c0.302-0.48,0.898-0.4,1.343-0.604
	C37.112,35.288,37.192,35.315,37.254,35.386L37.254,35.386L37.254,35.386L37.254,35.386z M29.936,36
	c-0.018,0.106,0.063,0.302-0.116,0.293c-0.222,0.054-0.142-0.257-0.346-0.293c-0.027-0.16,0.018-0.312,0.169-0.374
	C29.847,35.626,29.812,35.884,29.936,36L29.936,36L29.936,36L29.936,36z M29.705,36.817c-0.285,0.213-0.604-0.009-0.845-0.142
	c-0.035-0.125,0.054-0.223,0.143-0.267C29.322,36.337,29.544,36.622,29.705,36.817L29.705,36.817L29.705,36.817L29.705,36.817z
	 M34.889,36.729c0.044,0.48,0.044,1.049,0,1.485c0.009,0.062-0.071,0.018-0.116,0.036c-0.063-0.116-0.08-0.276-0.231-0.32
	c-0.489-0.053-0.88,0.32-1.432,0.231c0.044-0.604,0.783-1.067,1.227-1.458C34.489,36.568,34.854,36.453,34.889,36.729L34.889,36.729
	L34.889,36.729L34.889,36.729z M33.493,36.675c-0.863,0.524-1.547,1.627-2.65,1.396c-0.169-0.044-0.151-0.222-0.178-0.348
	c0.204-0.622,0.978-0.373,1.458-0.559c0.49-0.107,0.881-0.472,1.37-0.578l0,0V36.675L33.493,36.675L33.493,36.675z M37.574,37.368
	c-0.374,0.33-0.667,0.765-0.987,1.023c0.231-0.481,0.568-0.96,0.987-1.308C37.646,37.146,37.698,37.289,37.574,37.368L37.574,37.368
	L37.574,37.368L37.574,37.368z M32.266,38.098c-0.24,0.543-0.649,1.014-0.987,1.521c-0.454,0.355-0.951,0.764-1.547,0.613
	c-0.169-0.16-0.205-0.426-0.143-0.649c0.32-0.516,0.925-0.49,1.37-0.782c0.418-0.294,0.854-0.525,1.28-0.792l0,0L32.266,38.098
	L32.266,38.098L32.266,38.098z M34.195,38.392c0.178,0.8-0.854,0.897-1.049,1.52c-0.16,0.178-0.436,0.071-0.64,0.142
	c-0.267-0.009-0.462,0.32-0.729,0.116c0.392-0.952,1.37-1.646,2.356-1.833l0,0L34.195,38.392L34.195,38.392L34.195,38.392z
	 M35.911,39.121c-0.409,0.355-0.258,0.933-0.755,1.253c-0.293,0.205-0.445,0.535-0.818,0.552c-0.257-0.026-0.516-0.044-0.729-0.204
	c0.009-0.765,0.569-1.433,1.227-1.806c0.382,0.035,0.738-0.063,1.076-0.027l0,0V39.121L35.911,39.121L35.911,39.121z M44.777,41.681
	c0.898,0.036,1.823-0.053,2.766-0.026l0,0l-2.036,1.609l1.013,2.534l0,0c-0.827-0.48-1.645-0.951-2.472-1.432
	c-0.756,0.561-1.494,1.174-2.25,1.752c0.133-0.898,0.445-1.885,0.525-2.828l0,0l-2.099-1.316l2.624-0.142l0.675-2.686L44.777,41.681
	L44.777,41.681L44.777,41.681z M27.837,39.912c0,0.64-0.143,1.29,0.116,1.859c0.053,0.489,0.187,1.165-0.116,1.573
	c-0.356,0.143-0.551-0.204-0.667-0.436c-0.275-0.355-0.24-0.906-0.035-1.28c0.178-0.596,0.142-1.307,0.56-1.779
	C27.749,39.84,27.801,39.858,27.837,39.912L27.837,39.912L27.837,39.912L27.837,39.912z M30.754,40.605
	c-0.409,0.684-0.916,1.512-1.69,1.867c-0.213,0.063-0.489,0.036-0.586-0.205c-0.071-0.258-0.027-0.533,0.204-0.702
	c0.631-0.4,1.342-0.587,1.894-1.165l0,0h0.178V40.605L30.754,40.605L30.754,40.605z M32.852,40.722v0.088l0,0
	c-0.302,0.374-0.595,0.792-1.138,0.703c-0.294,0.036-0.498,0.276-0.818,0.258c0.044-0.374,0.444-0.747,0.791-0.961
	c0.365-0.053,0.685-0.248,1.103-0.177l0,0L32.852,40.722L32.852,40.722L32.852,40.722z M34.168,41.334
	c0.143,0.88-0.943,1.254-1.227,1.957c-0.294-0.098-0.133-0.542-0.178-0.818c-0.018-0.054-0.071-0.098-0.116-0.142
	c-0.24-0.098-0.453,0.196-0.613-0.036c0.071-0.364,0.445-0.729,0.756-0.871c0.329-0.143,0.792,0.062,1.085-0.177
	C33.973,41.264,34.106,41.201,34.168,41.334L34.168,41.334L34.168,41.334L34.168,41.334z M31.42,42.331
	c-0.142,0.365-0.56,0.462-0.844,0.693c-0.321,0.382-0.489,0.836-0.783,1.228l0,0h-0.062l0,0c0.151-0.809,0.631-1.761,1.521-1.983
	C31.314,42.268,31.385,42.25,31.42,42.331L31.42,42.331L31.42,42.331L31.42,42.331z M26.699,42.562
	c-0.081,0.773,0.533,1.29,0.355,2.072c-0.142,0.204-0.408,0.204-0.613,0.169c-0.498-0.285-0.285-0.951-0.293-1.423
	c0.071-0.346,0.24-0.648,0.382-0.969C26.646,42.375,26.681,42.473,26.699,42.562L26.699,42.562L26.699,42.562L26.699,42.562z
	 M29.882,42.562c-0.009,0.382-0.427,0.658-0.64,0.986c-0.542,0.454-0.845,1.228-1.609,1.201c-0.098-0.196-0.063-0.489-0.026-0.702
	c0.284-0.507,0.924-0.427,1.307-0.818C29.251,43.042,29.518,42.695,29.882,42.562L29.882,42.562L29.882,42.562L29.882,42.562z
	 M32.417,42.882c-0.062,0.738-0.133,1.609-0.845,1.956c-0.489,0.08-0.835,0.507-1.316,0.604c-0.213-0.355,0.018-0.8,0.116-1.165
	c0.32-0.596,0.72-1.485,1.547-1.458C32.088,42.837,32.283,42.775,32.417,42.882L32.417,42.882L32.417,42.882L32.417,42.882z
	 M33.057,44.162c-0.213,0.285-0.133,0.774-0.524,0.907c-0.213-0.293,0.009-0.623,0.142-0.88
	C32.746,44.047,33.013,43.958,33.057,44.162L33.057,44.162L33.057,44.162L33.057,44.162z M28.887,44.776
	c-0.275,0.293-0.356,0.836-0.818,0.871c-0.081-0.106,0.035-0.213,0.062-0.32c0.222-0.249,0.498-0.56,0.756-0.729l0,0V44.776
	L28.887,44.776L28.887,44.776z M32.007,45.389c0.213,0.552,0.294,1.37-0.115,1.868c-0.08,0.151-0.231,0.239-0.409,0.23
	c-0.223-0.115-0.16-0.4-0.347-0.551c-0.196-0.036-0.462,0.196-0.587-0.088c0-0.783,0.569-1.307,1.227-1.61
	C31.874,45.229,31.972,45.3,32.007,45.389L32.007,45.389L32.007,45.389L32.007,45.389z M25.481,45.532
	c0.053,0.187-0.133,0.356-0.151,0.551c-0.382,2.01-0.942,3.984-0.756,6.18c-0.044,0.818,1.076,1.138,0.871,2.019l0,0l2.624-2.508
	l0,0c-0.134-0.41-0.009-0.854,0.115-1.227c0.284,0.097,0.338,0.409,0.498,0.613l0,0l1.689-1.574l0,0
	c-0.462-0.507-0.364-1.396-0.08-1.957c0.133-0.116,0.267-0.24,0.462-0.231c0.267,0.124,0.32,0.444,0.409,0.702l0,0l-0.151,0.693l0,0
	c0.329-0.035,0.525-0.516,0.854-0.667l0,0l0.08,0.089l0,0c-0.009,0.765-0.293,1.423-0.525,2.098l0,0l-7.629,7.256l-0.036-1.601l0,0
	c0.417-0.542,1.013-1.014,1.521-1.521c-0.249,0.018-0.516-0.106-0.703-0.32c-0.427-0.72-0.4-1.671-0.347-2.561
	c0.062-2.116,0.604-4.037,1.103-5.975C25.383,45.576,25.409,45.505,25.481,45.532L25.481,45.532L25.481,45.532L25.481,45.532z
	 M26.174,45.559c-0.391,1.778-0.907,3.494-0.898,5.424c0.062,0.498,0.551,0.854,0.462,1.369c-0.081,0.098-0.249,0.062-0.347,0.036
	c-0.587-0.685-0.347-1.832-0.32-2.713c0.258-1.404,0.586-2.774,0.987-4.116l0,0H26.174L26.174,45.559L26.174,45.559z M29.705,46.145
	c0.222,0.507,0.222,1.271,0,1.779c-0.106,0.053-0.267,0.151-0.382,0.027c-0.169-0.454-0.854-0.711-0.551-1.307
	c0.116-0.383,0.347-0.659,0.587-0.96C29.607,45.674,29.58,46.021,29.705,46.145L29.705,46.145L29.705,46.145L29.705,46.145z
	 M26.85,45.825c-0.427,1.449-0.587,3.015-0.88,4.518c-0.107,0.08-0.133,0.257-0.284,0.231c-0.107,0.044-0.116-0.063-0.151-0.116
	c-0.063-0.249,0.24-0.338,0.267-0.551c0.249-1.387,0.409-2.81,0.872-4.108l0,0l0.089-0.089L26.85,45.825L26.85,45.825L26.85,45.825z
	 M27.402,46.528c-0.463,1.671-0.4,3.565-1.432,5.006c-0.044,0.062-0.133,0.026-0.205,0.035c0-0.498,0.356-0.916,0.525-1.369
	c0.444-1.289,0.542-2.722,0.934-4.028c0.035-0.044,0.106-0.089,0.178-0.089l0,0V46.528L27.402,46.528L27.402,46.528z M28.104,46.465
	c-0.275,1.743-0.729,3.406-0.969,5.158c-0.187,0.649-0.356,1.387-0.987,1.778c-0.16,0.107-0.294-0.053-0.436-0.088
	c-0.169-0.106-0.169-0.329-0.116-0.489c0.64-0.898,1.573-1.671,1.573-2.828c0.152-1.227,0.481-2.374,0.729-3.557
	C27.944,46.403,28.069,46.376,28.104,46.465L28.104,46.465L28.104,46.465L28.104,46.465z M52.877,49.204l2.419,1.023l0,0
	c-0.827,0.257-1.698,0.391-2.507,0.702l0,0l-0.347,2.65l-1.458-2.215l-2.65,0.614l0,0c0.568-0.711,1.111-1.431,1.716-2.134l0,0
	l-1.37-2.099l2.561,0.818l1.725-2.036l0,0C53.02,47.39,52.869,48.297,52.877,49.204L52.877,49.204L52.877,49.204L52.877,49.204z
	 M29.589,48.857c0.044,0.409,0.231,1.103-0.347,1.253c-0.08,0.081-0.08,0.223-0.205,0.258c-0.267,0.026-0.444-0.223-0.498-0.436
	c-0.071-0.605-0.542-1.548,0.178-1.983l0,0l0.169,0.036L29.589,48.857L29.589,48.857L29.589,48.857z M31.252,52.734l-2.277,2.277
	l0.089,1.512l0,0c-0.035,0.16-0.239,0.169-0.346,0.267c-0.24,0.24-0.445,0.525-0.649,0.756l0,0l-0.054-0.063l0,0
	c0.036-0.445-0.043-0.88-0.266-1.192c-0.365,0.125-0.551,0.534-0.871,0.783c0.222,0.694-0.018,1.396-0.231,2.01
	c-0.116,0.142-0.285,0.142-0.436,0.178c-0.356-0.231,0-0.658,0.053-0.96c0.106-0.142,0.196-0.32,0.116-0.498
	c-0.036-0.044-0.089-0.063-0.142-0.053c-0.383,0.329-0.64,0.703-0.96,1.05c-0.018,0.685,1.271,0.889,0.667,1.6
	c-0.32,0.116-0.472-0.178-0.703-0.293c-0.196-0.258-0.178-0.659-0.489-0.818c-0.374,0.026-0.383,0.587-0.729,0.524
	c-0.062-0.711-0.364-1.751,0.525-2.178l0,0l6.873-6.625h0.063L31.252,52.734L31.252,52.734L31.252,52.734z M30.727,54.513
	c0.445,0.435,0.205,1.156,0.142,1.689c-0.222,0.115-0.284-0.223-0.462-0.115c-0.293,0.151-0.338,0.453-0.56,0.667
	c-0.232,0.088-0.214-0.187-0.32-0.294c0.125-0.916,0.16-1.894,0.765-2.587C30.754,53.775,30.549,54.309,30.727,54.513L30.727,54.513
	L30.727,54.513L30.727,54.513z M30.576,56.789c0.578,0.604,0.586,1.441,0.56,2.294c-0.08,0.125-0.205,0.125-0.32,0.125
	c-0.409-0.143-0.355-0.756-0.853-0.73c-0.099,0.071-0.143,0.285-0.32,0.205c-0.205-0.187,0.018-0.409,0.035-0.613l0,0l0.525-1.138
	l0,0C30.247,56.754,30.434,56.789,30.576,56.789L30.576,56.789L30.576,56.789L30.576,56.789z M29.295,57.545v2.152l0,0
	c-0.062,0.071-0.133,0.142-0.231,0.115c-0.168-0.124-0.222-0.444-0.498-0.374c-0.08,0.124-0.213,0.116-0.347,0.116
	c-0.213-0.409-0.311-1.112,0.027-1.485l0,0l0.756-0.792l0,0C29.215,57.207,29.295,57.385,29.295,57.545L29.295,57.545L29.295,57.545
	L29.295,57.545z M27.402,58.763c0.106,0.774,0.088,1.636-0.232,2.304c-0.106,0.204-0.373,0.106-0.524,0.088
	c-0.703-0.773,0.266-1.521,0.436-2.268c0.035-0.106,0.018-0.258,0.142-0.293C27.384,58.532,27.313,58.728,27.402,58.763
	L27.402,58.763L27.402,58.763L27.402,58.763z M31.803,60.337c-0.009,0.071,0.036,0.213-0.089,0.178
	c-0.258-0.054-0.258-0.4-0.32-0.641c0.026-0.16-0.071-0.365,0.089-0.463C31.723,59.634,31.608,60.07,31.803,60.337L31.803,60.337
	L31.803,60.337L31.803,60.337z M30.869,60.053c0.525,0.969-0.444,1.618-0.409,2.534c-0.036,0.044-0.036,0.142-0.116,0.142
	c-0.195,0.062-0.382-0.125-0.409-0.293c-0.178-0.542-0.373-1.085-0.293-1.743c0.195-0.391,0.08-0.934,0.444-1.227
	C30.434,59.448,30.629,59.875,30.869,60.053L30.869,60.053L30.869,60.053L30.869,60.053z M27.988,60.311
	c0.107,0.685,0.222,1.582-0.329,2.098c-0.16,0.018-0.462,0.116-0.551-0.089c-0.178-0.632,0.373-1.04,0.471-1.601
	c0.107-0.338,0-0.774,0.205-1.076C28.069,59.697,27.828,60.124,27.988,60.311L27.988,60.311L27.988,60.311L27.988,60.311z
	 M29.18,60.284c-0.035,0.8,0.143,1.529,0.32,2.241c-0.205,0.124-0.355-0.125-0.462-0.258c-0.035-0.809-0.854-1.476-0.382-2.303
	C28.896,59.919,29.091,60.088,29.18,60.284L29.18,60.284L29.18,60.284L29.18,60.284z M25.561,60.986
	c0.293,0.605,1.378,0.783,1.049,1.601c-0.089-0.045-0.373,0.098-0.373-0.116c-0.854-0.427-1.103-1.298-1.28-2.098
	C25.223,60.471,25.303,60.799,25.561,60.986L25.561,60.986L25.561,60.986L25.561,60.986z M31.981,61.387
	c0.16,0.569,0.507,1.058,0.489,1.698c-0.329-0.071-0.569-0.445-0.96-0.294c-0.222,0.081,0.098,0.542-0.293,0.409l0,0l-0.374-0.64
	l0,0c0.071-0.596,0.436-1.077,0.667-1.61C31.821,60.862,31.883,61.217,31.981,61.387L31.981,61.387L31.981,61.387L31.981,61.387z
	 M25.89,62.614c-0.027,0.08,0.044,0.195-0.062,0.231c-0.231,0.045-0.418-0.036-0.462-0.258c0.017-0.169-0.161-0.293-0.089-0.436
	C25.552,62.116,25.668,62.462,25.89,62.614L25.89,62.614L25.89,62.614L25.89,62.614z M28.389,62.845
	c-0.365,0.178-0.267-0.275-0.436-0.436c-0.036-0.107,0.053-0.16,0.116-0.231C28.397,62.231,28.291,62.623,28.389,62.845
	L28.389,62.845L28.389,62.845L28.389,62.845z M27.144,63.188c0.679,1.458,1.263,2.903,1.894,4.326
	c-0.018,0.081,0.036,0.223-0.089,0.231l0,0l-0.178-0.231l0,0c-0.604-1.432-1.405-2.774-1.867-4.259
	C26.881,63.07,27.122,63.122,27.144,63.188L27.144,63.188z M28.184,63.725c0.529,1.232,1.07,2.452,1.494,3.788l0,0
	c0.044,0.223,0.142,0.569-0.063,0.756c-0.168,0.027-0.293-0.168-0.347-0.294c-0.008-0.8-0.293-1.485-0.551-2.188
	c-0.329-0.809-0.738-1.591-0.969-2.445C27.962,63.209,28.14,63.547,28.184,63.725L28.184,63.725L28.184,63.725L28.184,63.725z
	 M30.255,63.574c0.863,0.035,1.174,1.005,1.574,1.574l0,0l-0.026,0.24l0,0c-0.471,0.169-0.89-0.489-1.316,0
	c-0.285,0.116-0.303-0.222-0.4-0.356c-0.08-0.408-0.391-0.657-0.472-1.076c-0.035-0.205-0.071-0.489,0.027-0.667
	C29.945,63.166,30.042,63.512,30.255,63.574L30.255,63.574L30.255,63.574L30.255,63.574z M32.39,63.574
	c0.667-0.027,0.667,0.729,0.96,1.111c-0.018,0.409,0.044,0.854-0.063,1.228c-0.418,0.079-0.649-0.33-0.898-0.587
	c-0.347-0.515-0.578-1.084-0.561-1.751C31.839,63.121,32.257,63.423,32.39,63.574L32.39,63.574L32.39,63.574L32.39,63.574z
	 M26.557,63.574c0.578,1.76,1.191,3.512,2.392,5.015c0.293,0.267,0.756,0.267,0.845,0.729c0.071,0.16-0.116,0.16-0.178,0.231
	c-0.8-0.088-1.137-0.987-1.573-1.538c-0.658-1.45-1.245-2.908-1.779-4.402c-0.04-0.075-0.044-0.195,0.063-0.24
	C26.441,63.352,26.539,63.485,26.557,63.574L26.557,63.574L26.557,63.574L26.557,63.574z M28.833,63.69
	c0.845,1.672,1.594,3.393,2.368,5.091c0.151,0.579,0.229,1.436-0.358,1.854c-0.195,0.027-0.276-0.196-0.32-0.32
	c-0.249-0.872,0.258-1.788-0.204-2.597c-0.569-1.405-1.183-2.774-1.84-4.144C28.531,63.308,28.798,63.565,28.833,63.69L28.833,63.69
	L28.833,63.69L28.833,63.69z M25.943,64.188c0.818,2.169,1.556,4.446,3.646,6.002c0.32,0.311,0.907,0.409,0.872,0.97
	c-0.009,0.221-0.329,0.187-0.498,0.142c-0.836-0.32-1.485-1.228-1.948-1.957c-1.103-1.698-1.778-3.583-2.418-5.477
	C25.756,63.352,25.863,64.063,25.943,64.188L25.943,64.188L25.943,64.188L25.943,64.188z M30.958,74.565l-0.872-1.022l0.4-0.925l0,0
	c-0.756-0.187-1.183-1.014-1.485-1.636l0,0l0.089-0.027l0,0c0.56,0.338,0.978,1.022,1.725,0.934l0,0l3.059-6.678l0.64,1.228
	L30.958,74.565L30.958,74.565L30.958,74.565z M31.341,65.824c0.56-0.106,1.023,0.24,1.28,0.693c0.107,0.4,0.089,0.881-0.231,1.174
	c-0.125,0.125-0.249,0.258-0.445,0.195c-0.471-0.445-0.854-0.978-1.103-1.539c-0.071-0.178-0.106-0.373-0.089-0.587
	C30.914,65.521,31.181,65.717,31.341,65.824L31.341,65.824L31.341,65.824L31.341,65.824z M47.889,66.17
	c0.044,0.142-0.053,0.258-0.142,0.32c-0.143,0.044-0.213-0.071-0.258-0.178c-0.044-0.142,0.053-0.257,0.142-0.32
	C47.773,65.948,47.845,66.073,47.889,66.17L47.889,66.17L47.889,66.17L47.889,66.17z M48.708,66.197
	c0.053,0.151-0.063,0.267-0.169,0.32c-0.143,0.036-0.24-0.071-0.293-0.169c-0.054-0.151,0.062-0.267,0.169-0.32
	C48.556,65.992,48.654,66.1,48.708,66.197L48.708,66.197L48.708,66.197L48.708,66.197z M53.633,66.197
	c0.044,0.143-0.053,0.259-0.142,0.32c-0.151,0.044-0.213-0.071-0.267-0.169c-0.036-0.142,0.062-0.257,0.151-0.32
	C53.518,65.983,53.589,66.1,53.633,66.197L53.633,66.197L53.633,66.197L53.633,66.197z M55.821,66.233
	c0.036,0.151-0.044,0.284-0.178,0.347c-0.106-0.009-0.24-0.08-0.258-0.205c-0.035-0.16,0.044-0.293,0.178-0.347
	C55.67,66.028,55.803,66.108,55.821,66.233L55.821,66.233L55.821,66.233L55.821,66.233z M49.908,66.233
	c0.036,0.142-0.054,0.23-0.151,0.32c-0.142,0.053-0.231-0.089-0.293-0.178c-0.036-0.142,0.053-0.231,0.152-0.32
	C49.756,65.992,49.846,66.135,49.908,66.233L49.908,66.233L49.908,66.233L49.908,66.233z M50.602,66.197
	c0.018,0.143,0,0.276-0.142,0.32c-0.107,0.018-0.205-0.054-0.232-0.142c-0.018-0.133,0.009-0.275,0.143-0.32
	C50.477,66.037,50.575,66.108,50.602,66.197L50.602,66.197L50.602,66.197L50.602,66.197z M51.891,66.286
	c0,0.133-0.044,0.267-0.178,0.293c-0.133,0-0.231-0.098-0.231-0.231c-0.026-0.133,0.044-0.24,0.143-0.293
	C51.784,66.028,51.873,66.152,51.891,66.286L51.891,66.286L51.891,66.286L51.891,66.286z M54.247,66.233
	c0.009,0.124,0.009,0.24-0.116,0.32c-0.124,0.053-0.222-0.089-0.231-0.178c-0.009-0.124-0.009-0.25,0.116-0.32
	C54.141,65.992,54.229,66.144,54.247,66.233L54.247,66.233L54.247,66.233L54.247,66.233z M52.673,66.26
	c0.045,0.142-0.053,0.257-0.142,0.32c-0.151,0.044-0.213-0.08-0.266-0.178c-0.036-0.142,0.053-0.258,0.151-0.32
	C52.557,66.037,52.62,66.162,52.673,66.26L52.673,66.26L52.673,66.26L52.673,66.26z M50.281,67.603
	c-0.026,0.267,0.258,0.23,0.409,0.23c0.089,0.213,0.009,0.48-0.231,0.552c-0.107,0.026-0.25,0.044-0.294,0.178
	c0.053,0.782-0.285,1.814,0.294,2.419l0,0l-0.027,0.026l-0.996,0.035l0,0c-0.107-0.329,0.169-0.488,0.32-0.702l0,0v-1.93l0,0
	c-0.213-0.195-0.551-0.338-0.693-0.641c0.187-0.062,0.4,0.116,0.641,0.089C49.712,67.62,50.094,67.104,50.281,67.603L50.281,67.603
	L50.281,67.603L50.281,67.603z M37.165,70.368c0.107,0.293-0.169,0.205-0.293,0.347c-0.027,0.293,0.08,0.641-0.08,0.88
	c-0.667-0.071-0.854-0.835-1.139-1.316c-0.062-0.32-0.249-0.587-0.178-0.96c0.134-0.257,0.381-0.068,0.55-0.051
	C36.443,69.552,36.863,69.932,37.165,70.368L37.165,70.368L37.165,70.368L37.165,70.368z M52.175,69.585l0.151,0.604h-1.084l0,0
	c0.08-0.32,0.063-0.756,0.383-0.898C51.846,69.292,52.104,69.336,52.175,69.585L52.175,69.585L52.175,69.585L52.175,69.585z
	 M48.334,69.754c0.017,0.169,0.08,0.32,0.053,0.498l0,0L47.4,70.279l0,0c-0.054-0.294,0.071-0.587,0.204-0.845
	C47.88,69.167,48.325,69.39,48.334,69.754L48.334,69.754L48.334,69.754L48.334,69.754z M43.087,70.546
	c0.009,0.133-0.089,0.168-0.178,0.23c-0.151,0.036-0.276-0.053-0.347-0.142c-0.018-0.133,0.081-0.178,0.169-0.24
	C42.883,70.358,43.008,70.447,43.087,70.546L43.087,70.546L43.087,70.546L43.087,70.546z M43.87,70.519
	c0.045,0.116-0.071,0.187-0.142,0.232c-0.124,0.009-0.223-0.018-0.293-0.116c-0.044-0.116,0.071-0.196,0.142-0.24
	C43.701,70.386,43.799,70.412,43.87,70.519L43.87,70.519L43.87,70.519L43.87,70.519z M44.803,70.546
	c0.018,0.133-0.08,0.168-0.178,0.23c-0.151,0.036-0.275-0.053-0.347-0.142c-0.018-0.133,0.08-0.178,0.178-0.24
	C44.608,70.358,44.732,70.447,44.803,70.546L44.803,70.546L44.803,70.546L44.803,70.546z M45.675,70.572
	c0,0.133-0.098,0.231-0.231,0.231c-0.133,0.009-0.267-0.035-0.293-0.169c-0.009-0.133,0.089-0.178,0.178-0.24
	C45.479,70.368,45.648,70.431,45.675,70.572L45.675,70.572L45.675,70.572L45.675,70.572z M54.273,70.546
	c0.027,0.106-0.026,0.187-0.116,0.257c-0.106,0.026-0.187-0.027-0.257-0.115c-0.027-0.116,0.026-0.196,0.116-0.257
	C54.131,70.403,54.212,70.457,54.273,70.546L54.273,70.546L54.273,70.546L54.273,70.546z M46.404,70.714
	c-0.089,0.081-0.258,0.081-0.347,0c-0.081-0.106,0-0.223,0.115-0.258C46.315,70.457,46.538,70.537,46.404,70.714L46.404,70.714
	L46.404,70.714L46.404,70.714z M53.545,70.572c0.026,0.098-0.027,0.178-0.116,0.204c-0.098,0.019-0.205-0.017-0.231-0.115
	c-0.018-0.098,0.036-0.178,0.115-0.205C53.42,70.438,53.527,70.475,53.545,70.572L53.545,70.572L53.545,70.572L53.545,70.572z
	 M54.976,70.572c0.027,0.098-0.035,0.178-0.115,0.204c-0.098,0.019-0.178-0.035-0.205-0.115c-0.018-0.098,0.036-0.178,0.116-0.205
	C54.87,70.431,54.95,70.492,54.976,70.572L54.976,70.572L54.976,70.572L54.976,70.572z M52.442,70.75l0.027,0.292h-1.253l0,0
	c-0.071-0.124,0.017-0.24,0.026-0.355C51.642,70.706,52.078,70.644,52.442,70.75L52.442,70.75L52.442,70.75L52.442,70.75z
	 M48.476,70.714c0.125,0.081,0.24,0.205,0.231,0.356l0,0l-1.601-0.027l0,0C47.151,70.457,48.022,70.821,48.476,70.714L48.476,70.714
	L48.476,70.714L48.476,70.714z M38.33,71.799c0.373,0.311,0.88,0.667,0.845,1.192c-0.409,0.177-1.031-0.517-1.191,0.151
	c-0.249-0.054-0.454-0.329-0.587-0.525c-0.151-0.409-0.302-0.854-0.373-1.253c-0.071-0.161,0.106-0.044,0.142-0.125
	C37.609,71.302,37.921,71.675,38.33,71.799L38.33,71.799L38.33,71.799L38.33,71.799z M37.165,73.196
	c0.125,0.391,1.005,0.533,0.551,0.96c-0.275-0.009-0.427,0.453-0.729,0.231c-0.462-0.569-1.129-1.129-0.898-1.92
	c0.151-0.241,0.409-0.036,0.614-0.054C36.908,72.626,36.987,72.938,37.165,73.196L37.165,73.196L37.165,73.196L37.165,73.196z
	 M39.762,74.041l0.667,1.805l0,0c0.036,0.267-0.231,0.205-0.374,0.205c-0.817-0.499-1.564-1.334-1.84-2.214
	c0-0.151-0.009-0.312,0.151-0.41C38.633,73.345,39.405,73.412,39.762,74.041L39.762,74.041L39.762,74.041L39.762,74.041z
	 M41.656,74.654c0.16,0.4,0.285,0.854,0.231,1.316c-0.471,0.098-0.8-0.32-1.138-0.614c-0.267-0.4-0.64-0.871-0.409-1.37
	C40.882,73.969,41.398,74.173,41.656,74.654L41.656,74.654L41.656,74.654L41.656,74.654z M36.845,75.178
	c0.471,2.125,1.289,4.118,2.33,6.002c0.355,0.542,0.809,1.085,1.343,1.485c-1.841-0.364-3.246-2.276-3.904-3.904
	c-0.445-1.503-1.059-2.925-0.934-4.659l0,0L36.845,75.178L36.845,75.178L36.845,75.178z M38.624,76.495
	c0.817,2.338,1.734,4.686,3.85,6.438l0,0l0.872,0.783l0,0c-1.325-0.383-2.721-0.845-3.557-2.152
	c-1.325-1.832-2.036-3.921-2.534-6.091l0,0L38.624,76.495L38.624,76.495L38.624,76.495z M42.616,79.26l0.907,1.28l0,0
	c2.677,2.65,7.079,3.334,10.43,1.663c0.205-0.08,0.401-0.187,0.614-0.231c0.08,0.133-0.009,0.347-0.089,0.498l0,0l-0.284,0.258l0,0
	c-1.957,0.818-4.001,1.414-6.305,1.396c-2.169,0.063-3.966-0.81-5.593-2.063l0,0l-0.205,0.205l0,0
	c-1.458-1.681-2.472-3.53-3.059-5.575C40.304,77.375,41.407,78.451,42.616,79.26L42.616,79.26L42.616,79.26L42.616,79.26z
	 M32.968,76.895l-1.253,8.723l0,0c-0.027,0.143-0.231,0.081-0.32,0.054l0,0l-0.089-0.089l1.405-8.652l0,0
	C32.772,76.788,32.861,76.957,32.968,76.895L32.968,76.895L32.968,76.895L32.968,76.895z M35.885,80.487l-0.729,5.211l-2.97-0.258
	l0.845-6.998l0.205-0.872l0,0C34.08,78.504,34.996,79.509,35.885,80.487L35.885,80.487L35.885,80.487L35.885,80.487z M47.979,81.652
	c1.778,0.276,3.921,0.641,5.602-0.115c0.027-0.054,0.116-0.081,0.089-0.151c-0.196-0.187-0.462-0.018-0.676,0
	c-2.009,0.561-4.393,0.285-6.18-0.551c-0.018-0.116,0.115-0.106,0.178-0.142c2.375,0.275,4.926,0.124,7.229-0.205
	c0.169,0,0.275,0.089,0.347,0.231l0,0l0.027,0.96l-0.081,0.089l0,0c-2.125,0.667-4.588,1.556-6.909,0.702
	c-0.765-0.213-1.467-0.56-2.187-0.88c-0.827-0.685-1.903-1.263-2.392-2.277C44.715,80.007,46.333,80.869,47.979,81.652
	L47.979,81.652L47.979,81.652L47.979,81.652z M36.347,82.025l-0.462,4.438l-0.32-0.676l0.552-5.016l0,0
	C36.667,81.029,36.276,81.608,36.347,82.025L36.347,82.025L36.347,82.025L36.347,82.025z M38.304,82.435
	c-0.25,1.671-0.418,3.379-0.756,5.015l0,0l-3.557-0.32l0,0c-0.063-0.124-0.134-0.239-0.151-0.382
	c0.765-0.169,1.44,0.187,2.223,0.151c0.133-0.293,0.098-0.72,0.143-1.084l0,0l0.498-4.366l0,0
	C37.156,81.963,37.77,82.105,38.304,82.435L38.304,82.435L38.304,82.435L38.304,82.435z M38.33,87.974
	c-0.293,0.01-0.267-0.444-0.409-0.667l0,0l0.64-4.722l0.329,0.206L38.33,87.974L38.33,87.974L38.33,87.974z M39.966,83.431
	l-0.436,5.415l-0.089,0.125l-2.623-0.036l0,0c-0.169-0.07-0.453-0.07-0.471-0.32l0,0l0.062-0.053l0,0
	c0.703-0.026,1.378,0.168,2.037,0.053l0,0l0.151-0.32l0.552-5.335l0,0C39.379,83.208,39.69,83.27,39.966,83.431L39.966,83.431
	L39.966,83.431L39.966,83.431z M40.109,89.37l-0.347-0.347l0.498-5.478l0.374,0.142L40.109,89.37L40.109,89.37L40.109,89.37z
	 M41.042,90.304c-0.782,0.054-1.68,0.063-2.391-0.231l0,0V90.02l0,0c0.542,0,1.049,0.097,1.574,0.142l0,0l0.089-0.142l0.587-6.216
	l0.436,0.178L41.042,90.304L41.042,90.304L41.042,90.304z M42.002,84.329l-0.089,3.264l0,0c0.267,1.146,0.738,2.338,0.382,3.592l0,0
	h-0.143l-0.791-0.817l0.267-6.243l0,0C41.754,84.195,41.922,84.222,42.002,84.329L42.002,84.329L42.002,84.329L42.002,84.329z
	 M42.678,84.444l-0.382,0.294l-0.026-0.409l0,0C42.376,84.435,42.545,84.409,42.678,84.444L42.678,84.444L42.678,84.444
	L42.678,84.444z M43.434,84.568c-0.347,0.303-0.756,0.445-1.138,0.667c-0.151-0.418,0.436-0.347,0.614-0.613
	C43.025,84.4,43.266,84.577,43.434,84.568L43.434,84.568L43.434,84.568L43.434,84.568z M44.688,84.738
	c-0.729,0.435-1.503,0.783-2.276,1.111c-0.053-0.107,0-0.25-0.053-0.355c0.561-0.223,1.111-0.454,1.6-0.872l0,0L44.688,84.738
	L44.688,84.738L44.688,84.738z M49.09,85.093l-0.027,0.169l0,0c-2.009,1.022-4.046,1.957-6.127,2.801l0,0l-0.231-0.436l0,0
	c1.654-0.72,3.281-1.476,4.899-2.276l0,0l0.578-0.437l0,0C48.512,84.995,49.019,84.453,49.09,85.093L49.09,85.093L49.09,85.093
	L49.09,85.093z M45.915,84.915c-1.067,0.739-2.276,1.139-3.477,1.574c-0.009-0.097,0.026-0.213-0.027-0.292
	c0.88-0.498,1.867-0.748,2.686-1.396l0,0L45.915,84.915L45.915,84.915L45.915,84.915z M47.454,84.968
	c-1.228,0.925-2.65,1.378-3.993,2.019l0,0l-0.898,0.347l0,0c-0.08-0.142-0.107-0.311-0.089-0.498
	c1.307-0.57,2.695-0.952,3.841-1.894C46.716,84.906,47.098,85.004,47.454,84.968L47.454,84.968L47.454,84.968L47.454,84.968z
	 M50.023,85.352c-0.063,0.266-0.196,0.551-0.472,0.667l0,0l-5.976,2.748l0,0c-0.08,0.027-0.16,0.063-0.258,0.053
	c-0.106-0.133-0.124-0.303-0.231-0.436l0,0l5.042-2.303l1.743-0.845l0,0C49.935,85.253,49.97,85.307,50.023,85.352L50.023,85.352
	L50.023,85.352L50.023,85.352z M35.538,86.542c-0.818,0.045-1.761-0.391-2.392,0.267l0,0l-1.663-0.347l0.382-0.587l3.406,0.347
	L35.538,86.542L35.538,86.542L35.538,86.542z M50.841,87.423c0.338,0,0.578-0.222,0.898-0.266c0.125,0.933,0.027,1.929-0.027,2.863
	l0,0l-0.062,0.053l0,0c-0.854,0.036-1.601-0.187-2.419-0.231c0.018-1.112,0.053-2.285,0.116-3.415
	c0.204-0.134,0.409-0.115,0.56,0.115l0,0L50.841,87.423L50.841,87.423L50.841,87.423z M48.45,90.367
	c0-1.174,0.098-2.393,0.142-3.584l0,0l0.436-0.205l-0.116,3.814L48.45,90.367L48.45,90.367L48.45,90.367z M33.582,86.872
	c0.036,0.152-0.053,0.32-0.142,0.462c-0.08,0.098-0.178,0.16-0.293,0.178c-0.107-0.08-0.089-0.24-0.089-0.32
	C33.235,87.085,33.359,86.845,33.582,86.872L33.582,86.872L33.582,86.872L33.582,86.872z M48.219,87.129
	c-0.089,0.836,0.053,1.761-0.125,2.561l0,0l-2.214-0.231l0,0c-0.231-0.346-0.16-0.871-0.168-1.342l0,0l2.445-1.129L48.219,87.129
	L48.219,87.129L48.219,87.129z M43.025,89.085h-0.027l0,0c-0.071,0.196-0.08,0.454-0.267,0.578c-0.08-0.151-0.071-0.347-0.115-0.525
	c-0.205-0.596-0.418-1.182-0.498-1.832l0,0l0.088-0.15l0.845,1.662L43.025,89.085L43.025,89.085L43.025,89.085z M38.072,88.294
	c-1.592,0-3.184-0.178-4.669-0.524l0,0l0.409-0.347l3.762,0.293L38.072,88.294L38.072,88.294L38.072,88.294z M52.353,87.592
	c-0.044,0.151,0.116,0.436-0.142,0.444c-0.187,0.026-0.169-0.151-0.205-0.267c0.036-0.116,0.018-0.276,0.169-0.321
	C52.247,87.467,52.335,87.521,52.353,87.592L52.353,87.592L52.353,87.592L52.353,87.592z M52.673,88.499l-0.116,1.921l0,0
	c0.116,0.125,0.081,0.311,0.258,0.409l0,0l-0.96-0.142l0,0c0.24-0.693,0.116-1.609,0.24-2.392
	C52.3,88.144,52.557,88.304,52.673,88.499L52.673,88.499L52.673,88.499L52.673,88.499z M45.47,89.726
	c0.463,0.302,1.094,0.168,1.61,0.347c0.009,0.143-0.178,0.071-0.24,0.178c-0.471,0.116-1.005,0.027-1.485-0.035l0,0l-0.089-0.116
	l0,0c-0.097-0.347,0.116-0.871-0.284-1.049c-0.56,0.151-1.094,0.427-1.663,0.444c0.036-0.169,0.107-0.364,0.293-0.409l0,0
	l1.743-0.818L45.47,89.726L45.47,89.726L45.47,89.726z M55.181,88.766c0.044,0.223,0.009,0.48,0.142,0.667
	c0,0.356,0.036,0.765-0.142,1.022c-0.791-0.044-1.565-0.133-2.303-0.293c-0.062-0.481-0.026-0.987,0.089-1.433
	c0.312,0.125,0.605,0.383,0.987,0.241l0,0l0.437-0.613l0,0C54.683,88.428,55.118,88.392,55.181,88.766L55.181,88.766L55.181,88.766
	L55.181,88.766z M36.027,88.525c0.053,0.188-0.009,0.401-0.116,0.561c-0.071,0.116-0.195,0.116-0.293,0.169
	c-0.098-0.142-0.036-0.365-0.054-0.552C35.716,88.642,35.822,88.454,36.027,88.525L36.027,88.525L36.027,88.525L36.027,88.525z
	 M40.02,89.815c-1.379-0.036-2.846-0.018-4.135-0.356c0.063-0.124,0.222-0.249,0.383-0.293l0,0l3.228,0.125L40.02,89.815
	L40.02,89.815L40.02,89.815z M55.937,89.406c-0.071,0.614,0.169,1.352-0.205,1.832c-0.515,0.089-1.191,0.151-1.511-0.347
	c-0.027-0.258,0.311-0.124,0.436-0.116c0.302,0.018,0.587,0.08,0.907,0.054c0.116-0.444,0.009-0.987,0.08-1.458l0,0L55.937,89.406
	L55.937,89.406L55.937,89.406z M56.204,91.184L56.204,91.184l-0.089-0.151c0.036-0.551,0.036-1.121,0.116-1.663l0,0h0.205v1.636
	C56.396,91.115,56.349,91.227,56.204,91.184L56.204,91.184z M38.241,90.277c-0.018,0.107-0.062,0.223-0.169,0.267l0,0h-0.089l0,0
	c0.026-0.16-0.196-0.409,0.089-0.472C38.214,90.064,38.197,90.188,38.241,90.277L38.241,90.277L38.241,90.277L38.241,90.277z
	 M50.841,90.367c0.063,0.053,0.125,0.133,0.054,0.205c-0.071,0.026-0.196,0.07-0.32,0.053c-0.027-0.08-0.116-0.133-0.178-0.204
	c-0.303-0.071-0.205,0.516-0.525,0.267c-0.08-0.115-0.205-0.258-0.116-0.409l0,0L50.841,90.367L50.841,90.367L50.841,90.367z
	 M49.179,90.775c0.062,0.054,0.125,0.152,0.053,0.231c-0.658,0.036-1.343-0.053-1.983-0.142c-0.053-0.054-0.018-0.142-0.027-0.205
	c0.08-0.081,0.151-0.178,0.267-0.178C48.049,90.579,48.636,90.624,49.179,90.775L49.179,90.775L49.179,90.775L49.179,90.775z
	 M41.22,90.687c0.214,0.124,0.427,0.338,0.551,0.551c-1.208-0.009-2.427-0.195-3.646-0.294l0,0l0.436-0.436L41.22,90.687
	L41.22,90.687L41.22,90.687z M54.016,91.123c0.071,0.062,0.053,0.168,0.053,0.266c-0.116,0.125-0.285,0.116-0.462,0.116l0,0
	l-2.854-0.241l-0.231-0.115l0,0c0.063-0.089,0.071-0.285,0.231-0.258C51.828,90.998,52.887,91.14,54.016,91.123L54.016,91.123
	L54.016,91.123L54.016,91.123z"/>
<g>
	<rect x="109" y="35" fill-rule="evenodd" clip-rule="evenodd" fill="#E7E7E7" width="111" height="8"/>
	<rect x="109" y="56" fill-rule="evenodd" clip-rule="evenodd" fill="#E7E7E7" width="111" height="8"/>
	<rect x="38" y="104" fill-rule="evenodd" clip-rule="evenodd" fill="#E7E7E7" width="182" height="8"/>
	<rect x="38" y="123" fill-rule="evenodd" clip-rule="evenodd" fill="#E7E7E7" width="182" height="8"/>
</g>
</svg>
