<?xml version="1.0" encoding="utf-8"?>
<!-- Generator: Adobe Illustrator 21.0.0, SVG Export Plug-In . SVG Version: 6.00 Build 0)  -->
<svg version="1.1" id="图层_1" xmlns="http://www.w3.org/2000/svg" xmlns:xlink="http://www.w3.org/1999/xlink" x="0px" y="0px"
	 viewBox="0 0 61.8 40.2" style="enable-background:new 0 0 61.8 40.2;" xml:space="preserve">
<style type="text/css">
	.st0{fill:#EFEFEF;}
	.st1{fill:#D2D2D2;}
</style>
<g id="图层_2">
	<g>
		<path class="st0" d="M2.3,8.9L48.2,0c0,0,2.7-0.6,3.4,2.2s3.1,16.4,3.1,16.4s-5.6-0.8-9.2,2.3c-6.1,5-3.7,12.7-3.7,12.7L8.9,40.1
			c0,0-2.7,0.8-3.8-1.6L0.1,12.9C0.1,12.9-0.7,9.9,2.3,8.9z"/>
		<path class="st0" d="M52.9,20.7c11.1-0.3,12.8,17.8-0.4,18.3C39.3,37.9,41.8,20.7,52.9,20.7z"/>
	</g>
	<g>
		<path class="st1" d="M47,31l2.8-1.6c0,0,1.1,1.8,1.5,2.7c0,0,3-6.2,6-7.6c0,0-0.3,3.5,0.1,3.8c0,0-3.5,2.2-5.8,6.4
			c-0.2,0.1-0.4,0-0.4,0s-2-2.6-4.3-3.5V31z"/>
		<path class="st1" d="M41.6,6c0,0,5.9,2.4,2.2,9c0,0.8,0.7,0.9,1.2,1s2.9,1,3.9,3.1c-2.9,0.7-5.2,3.7-5.2,3.7s-7.4,1.8-7.7,1.5
			s0-3,0-3s0.2-2.1,3-4.1c0,0,0.3-0.9,0.5-1l0-0.2c0,0-1.8-0.2-2.6-2.8c-0.7-2-1.7-5.3,2.6-7.2L41.6,6z"/>
		<polygon class="st1" points="6.2,16.4 6.5,18 27.1,14 26.9,12.4 		"/>
		<polygon class="st1" points="7.1,20.7 7.3,22.3 27.9,18.4 27.7,16.7 		"/>
		<polygon class="st1" points="8.1,26.2 8.4,27.7 28.9,23.8 28.7,22 		"/>
		<polygon class="st1" points="9.6,34.2 9.9,35.8 41.4,29.6 41.5,28 		"/>
	</g>
</g>
</svg>
